<svg xmlns="http://www.w3.org/2000/svg" viewBox="0 0 400.1 511.9"><g data-name="Layer 2"><g data-name="Layer 1"><path fill="#39c4bc" d="M247.76 30.35a2.72 2.72 0 0 0-1.17 0 2 2 0 0 0-1.16 2 .58.58 0 0 0 .13.31c.26 0 .52.08.76.15 1 .3.72.71.1 1.15l-.41-.12a10.11 10.11 0 0 0-1.25 1.93h.13a.83.83 0 0 1 .22 0c-.51 1.35-1 2.71-1.6 4.29a13.17 13.17 0 0 0-7-3.51 16.83 16.83 0 0 0 3.62-6.92l3.2 2.39-.21.24h.26c.92-.57 1.6-1.23 1-2.42a10.77 10.77 0 0 1-1.52-.95c-.82-.68-1.58-1.44-2.34-2.19a1.37 1.37 0 0 0-1.43-.51c-.61.19-.69.73-.74 1.29 0 .39-.17.78-.21 1.18a10.84 10.84 0 0 1-3.31 6.48c-.28.29-.6.55-.85.86-.85 1.09-.55 2.06.75 2.45a5.37 5.37 0 0 0 1 .15 11.13 11.13 0 0 1 7.24 3.91 6.89 6.89 0 0 0 .67.75c.84.72 1.68.5 2-.56.14-.51 0-1.08.17-1.59.37-1.73.46-3.61 2.29-4.62a7.36 7.36 0 0 1 1.68-2.12c1.28-2.37.69-3.58-2.02-4.02Z"/><path fill="#a9eef1" d="M333.37 139.63c.06 1.93 1.25 3.35 2.29 4.79 4 5.57 9.06 10.12 14.11 14.71a163 163 0 0 1 14.56 14.35c2.53 2.94 5 5.92 7.31 9a50 50 0 0 1 9.57 21.58c.59 3.5.82 7 1.07 10.53a48.45 48.45 0 0 1-.57 8 52.27 52.27 0 0 1-1.58 9.05 81.9 81.9 0 0 1-5.69 15.15 128.81 128.81 0 0 1-9.31 15.9 81.91 81.91 0 0 1-13.42 14.79A143.56 143.56 0 0 1 336.38 289c-4.52 3-9.08 5.89-13.61 8.84-.78.51-1.5 1.11-2.25 1.67-.73-1-.17-1.95 0-2.87a90.26 90.26 0 0 0 2.1-19.13 62.56 62.56 0 0 0-5.91-27A52.22 52.22 0 0 0 299 229.16a4.28 4.28 0 0 1-1.74-2.59 47.39 47.39 0 0 1-1.29-6.9c-.3-2.3 0-3 2.18-3.88 11.54-4.5 17.45-13.5 19.93-25.11 1.81-8.44-.13-16-6.47-22.07a19.14 19.14 0 0 0-9.76-4.87 48.76 48.76 0 0 1-10.36-3.14 11.25 11.25 0 0 1-5-4.43 20.15 20.15 0 0 0-3.24-4.33 10.26 10.26 0 0 0-6.82-3 5.19 5.19 0 0 0-5.05 3c-2.26 4.13-3.61 8.39-1.54 13a1.56 1.56 0 0 1-.6 2.25c-3.83 2.2-6.05 5.82-8.21 9.45a19.28 19.28 0 0 1-6.23 6.66c-4.42 2.83-4.9 6.54-1.7 10.81.69.92 1.59 1.64 2.29 2.53 1 1.27.73 1.91-.83 2.14-.6.09-1.21 0-1.81.12a2.46 2.46 0 0 0-2.26 1.73 29.56 29.56 0 0 1-1.78 4.67c-.69 1.62-.23 3 1.28 4.26a18.7 18.7 0 0 0 5.49 2.87c2.23.87 4 2.16 4.61 4.64a4.67 4.67 0 0 1-1.08 4.66c-2.58 2.73-5.12 5.5-8.44 7.37a5.74 5.74 0 0 0-3 4.92c-.06.92-.16 1.77-1.05 2.23-4.28 2.2-6.31 6.23-7.71 10.41-1.95 5.8-5.1 10.85-8.27 16-4.15 6.72-7.82 13.73-11.64 20.65-.32.58-.58 1.21-.92 1.78-1 1.66-1.44 1.69-2.94.45a81.26 81.26 0 0 1-14.48-16.32c-3-4.23-5.62-8.65-8.45-13-1.94-3-46.82-29.38-47.73-29.5a1.41 1.41 0 0 1-1-1c-.18-.92.26-1.8.17-2.73-.16-1.76-1-2.2-2.42-1.21-.48.33-.88.79-1.53.82a1.3 1.3 0 0 1-1-.59c-.53-1.13.17-2.23.08-3.35-.08-.89-.15-1.8-1.1-2.19s-1.47.33-2 .89-.86 1.25-1.77 1.09c-4-2.54-7.39-5.75-11-8.76-8.48-7.17-17-14.33-25.06-21.94a3.83 3.83 0 0 1-1.31-2.8 136 136 0 0 1 .56-14.33c.66-8.76 1.09-17.49-2.59-25.86a30.2 30.2 0 0 1-2.48-10.3 20.57 20.57 0 0 1 3.64-12.7 19.9 19.9 0 0 0 2-3.48 3.71 3.71 0 0 0-.21-3.65 2.82 2.82 0 0 1-.14-3 8.63 8.63 0 0 0 .52-4.91 10.29 10.29 0 0 1 1.72-6.87c1.32-2.27 2.79-4.65 2-7.35-.63-2.06.14-3.49 1.08-5a.82.82 0 0 1 .8-.49c.94.55 1.79 0 2.6-.31 5.4-1.92 10.8-3.86 16.16-5.89 2.19-.82 4.29-1.85 6.43-2.79a.93.93 0 0 0 .53-1c.89-.36 1.16.43 1.57.88a10.55 10.55 0 0 1 2.54 5.78 3.45 3.45 0 0 0 .81 2.32 11.65 11.65 0 0 0-1.17-6.9c-.36-.83-1.19-1.49-.92-2.55.62-.93 1.73-.93 2.61-1.38 5.88-3 11.69-6.19 17.36-9.61A120.33 120.33 0 0 1 177 53.66a106.83 106.83 0 0 1 17.35-3.84A130.38 130.38 0 0 1 217 48.69c4.13.11 8.24.58 12.34 1.08s8.17 1.18 12.22 2A155.06 155.06 0 0 1 257.41 56a149.63 149.63 0 0 1 24.27 9.91 46.52 46.52 0 0 1 4.34 2.5c.81.54 1 0 1.41-.44.63.57.34 1.24.19 1.87-1.24 5.29-3.11 10.22-7.79 13.54-.11.08-.14.22-.12.55 1.24.09 2-.75 2.79-1.47 3.17-3.07 4.84-7 6-11.13.18-.64-.09-1.56.93-1.76-.1 1.19.75 1.63 1.62 2.06.9 1 .4 2 .15 3-.31 1.35-1.08 2.55-1.49 4.32a5.64 5.64 0 0 0 2.23-3.3c.33-.84.25-1.89 1.2-2.43 1.43 1.51 3.25 2.55 4.76 4a61.23 61.23 0 0 1 12.9 16.42c1.63 3.14 3.32 6.25 4.88 9.43 2.21 4.5 4.05 9.16 6 13.78 2.68 6.41 5.51 12.75 8.79 18.88a5.28 5.28 0 0 0 1.66 2.22c0 1-.89 1-1.49 1.3s-1.46.17-1.89 1.09c1.06.42 1.94-.13 2.85-.35.57-.15 1.05-.87 1.77-.36Z"/><path fill="#a9eef1" d="M156.74 430.2a96.81 96.81 0 0 1-16.83-10.77 90.16 90.16 0 0 1-18.11-19.14 97.12 97.12 0 0 1-13.49-27.37 95.44 95.44 0 0 1-3-13.65c-1.2-7.39-1.2-14.86-1.4-22.3-.13-4.57-.27-9.15-.15-13.72.15-5.62-.4-11.22-.6-16.82-.12-3.39-.28-6.8-.68-10.17-.36-3-.76-5.92-1.39-8.86-.81-3.78-1.48-7.59-2.55-11.3a93.93 93.93 0 0 0-4-11.5 4.63 4.63 0 0 0-1.21-2c-.83-.22-.53-.94-.63-1.47-.71-3.9-.51-7.87-.63-11.78-.2-6.83-1.08-13.58-1.69-20.36-.07-.8-.19-1.59-.18-2.39a2 2 0 0 1 .94-1.46c2.73-2 4.13-4.82 5.08-7.95.62-2 .94-2.13 2.78-1 4.55 2.79 8.89 5.93 13.54 8.56a156.6 156.6 0 0 0 14.19 7.41 4.28 4.28 0 0 1 1.27.84 2.19 2.19 0 0 1 .51 2c-.15.87-.23 1.82.68 2.28 1.09.54 1.66-.39 2.26-1.07a2.25 2.25 0 0 1 1.09-.81 1.82 1.82 0 0 1 .57 0c1.16.41 1.1 1.33 1 2.31-.07.82 0 1.7.92 2s1.35-.36 1.84-.91a2.76 2.76 0 0 1 1.39-1.11 1.51 1.51 0 0 1 .84.11c.67.42.67 1.08.61 1.77-.11 1.19 0 2.44 1.26 2.9s1.85-.71 2.47-1.56a1.68 1.68 0 0 1 .88-.78c3.38.74 6.68 1.63 9.12 4.34 1.12 1.24 12.4-.83 15.91 4.29 3.3 4.82 20.19 34.92 22.47 40.28a131.1 131.1 0 0 0 19.29 31.11 12.41 12.41 0 0 0 8.25 4.95c1.61.17 2 1.14 1.76 2.54-.53 3.64-1.15 7.27-1.75 10.9a2.7 2.7 0 0 1-2.11 2.33 45.39 45.39 0 0 1-20.22 1.65c-3.45-.47-6.88-1.07-10.26-1.87a7.31 7.31 0 0 0-6.15.82 1.9 1.9 0 0 1-1.51.42c-1.3-1.28-.26-2.64-.13-4 .72-.86 1.85-1.35 1.84-2.82 0-2.32-.26-2.7-2.61-2.78a56.5 56.5 0 0 1-4.7-3.9c.25-2 1.43-3.58 2-5.41a4.29 4.29 0 0 0-1.11-4.94 5.19 5.19 0 0 0-6.93.31c-2.33 2.72-2.24 4.77.26 7.33.92.94 2.08 1.72 2.41 3.13a22.31 22.31 0 0 0-3.61 5.82 2.59 2.59 0 0 1-1.15.75c-1.56.53-1.72 1.75-1.75 3.17s.76 2 2 2.23c.19 0 .32.22.46.37a13.88 13.88 0 0 1 .06 7.77c-1.06.84-2.19.29-3.27.11-1.37-.22-2.65-.15-3.21 1.31s.32 2.43 1.41 3.22c3.09 2.25 3.09 2.25.2 4.83-3.57 3.19-4.59 7.38-4.76 11.94-.17 4.36.39 8.69.4 13v35.54c0 2.88.5 5.73.42 8.61.02 1.01.22 2-.61 2.72Z"/><path fill="#21b5bc" d="M90.55 226.08c.63 3.29.67 6.64 1.11 9.95.61 4.51.65 9.05 1 13.58.24 3.67 0 7.37.61 11 .11.65-.33 1.31 0 1.95.19 6.35.43 12.71 1 19q.33 3.4.46 6.81c.26 6.29 1 12.54 1.53 18.81.36 4.68 1 9.31 1.69 13.94.46 2.92 0 3.61-2.73 4.78a57.42 57.42 0 0 1-12.1 3.58c-1.89.37-2.29.17-3-1.68-.43-1.09-.57-.07-.84.06a5.55 5.55 0 0 0-3.34.86A238.32 238.32 0 0 0 52.17 336c-1 .37-1.76.78-1.53 2.14s-.71 2-1.8 2.58c-2.74 1.42-5.72 2.3-8.38 3.87-1.11-.49-2.05.5-3.13.37-3.63.9-7.22 2-10.92 2.62-1.38.24-2.77.45-4.17.56-3.18.23-4.21-1.09-3.26-4.07.06-.17.21-.36-.11-.63a30.79 30.79 0 0 1-6.41 1.77 9.77 9.77 0 0 1-3 .11c-2.37-.33-3.18-2.25-1.85-4.22.61-.91 1.67-1.58 1.72-3H6.46a6.91 6.91 0 0 1-3.1-.71 4.15 4.15 0 0 1-2.53-3.79 29.26 29.26 0 0 1 .67-7 214.37 214.37 0 0 1 6.08-21.2c3.15-9.88 6-19.84 9.32-29.67 2.27-6.78 5-13.41 7.51-20.11 1.94-5.2 3.84-10.42 5.76-15.63.37-.77 0-1.63.26-2.42a51.24 51.24 0 0 0 5.69-9.57c1.9-4.8 2.73-9.88 3.88-14.88.94-1.65.82-3.69 1.94-5.27a18.51 18.51 0 0 1 2.62-1.85 33.8 33.8 0 0 0 9.72-13.57c.92-2.23 1.69-4.52 2.44-6.81.24-.75.37-1.6 1.26-1.94 1 .22 1.07 1.11 1.39 1.82 2.69 6.06 5.07 12.26 7.6 18.39 2.6 6.33 5.46 12.54 9.5 18.1 3.08 4.24 7.11 5.56 12.2 4.24.6-.23 1.22-.71 1.88-.15Z"/><path d="M157.3 247.85a17.92 17.92 0 0 1-4.85-3.72 7 7 0 0 0-2.85-1.76c-1.71-.7-3.45-1.34-5.17-2a7.21 7.21 0 0 1-2.24-.5 1.87 1.87 0 0 1-.92-.79 2.51 2.51 0 0 1 .9-2.88c3 0 5.41 1.74 8.1 2.67a17.45 17.45 0 0 1 5.66 3.69c2.87 2.52 6.2 4.19 10.24 3.68a5.07 5.07 0 0 1 4.3 1.74 27.73 27.73 0 0 1 2.87 3.61 27 27 0 0 0 3 3.46c1.15 1.11 2.49 1.85 4 .9s.53-2.46.08-3.62a67.89 67.89 0 0 0-6.9-12.41c-2.65-4.07-6.19-5.26-10.85-4.46a22.9 22.9 0 0 1-16.15-3.29 4.78 4.78 0 0 1-1.41-1.12c-.55-1.4.38-2.23 1.21-3.1a.93.93 0 0 1 .57-.07 3.69 3.69 0 0 1 1.9 1.6 12.18 12.18 0 0 0 2.76 1.23c2.47 0 4.81 1 7.33.77 1.92-.16 3.86-.11 5.79-.36a10.24 10.24 0 0 1 5.34.55c1.3.55 2 .27 2.29-1.12a2.3 2.3 0 0 1 1.07-1.4l.67-.75a3.53 3.53 0 0 1 5.72.65 7.69 7.69 0 0 1 1.23 3.36 10.81 10.81 0 0 0 3.46 6.58 33.34 33.34 0 0 1 3.53 4.07 5.9 5.9 0 0 1 1.32 3.26c.33 1.5.63 3 1 4.51a12.27 12.27 0 0 0 1.34 3.56 167.59 167.59 0 0 0 16.25 23.4 113 113 0 0 0 8.7 8.5c.94-1.76 1.8-3.42 2.7-5.05 2.93-5.34 6-10.58 8.91-15.95 2.18-4.07 5.08-7.72 7.25-11.81a17.18 17.18 0 0 0 1.46-3.28 38.31 38.31 0 0 1 3.3-8.17 13.84 13.84 0 0 1 6-6.27c.75-.36.82-.79.78-1.57a5.42 5.42 0 0 1 2.88-5.34 35 35 0 0 0 8.53-7.27 5.15 5.15 0 0 0-1.13-7.76 13.08 13.08 0 0 0-2.55-1.17 22 22 0 0 1-4.48-2.23c-2.63-1.72-3.16-3.81-1.61-6.51a7.56 7.56 0 0 0 1.1-3c.18-1.7 1-2.42 2.75-2.6 1-.11 2.07-.13 3.5-.21l-2.18-2.29a13.64 13.64 0 0 1-3.17-5.53c-.81-2.74-.28-4.81 2.17-6.28a24.23 24.23 0 0 0 9.08-9.94c.31-.59.72-1.12 1.08-1.69a14.4 14.4 0 0 1 6.72-6c-.33-1.47-.91-2.81-1.21-4.22a11 11 0 0 1 .14-5.36 24.76 24.76 0 0 1 2.72-6 5.36 5.36 0 0 1 5.31-2.57 11.29 11.29 0 0 1 8.12 4.65 30.12 30.12 0 0 1 2.14 3.13 10.86 10.86 0 0 0 5.31 4.4 48.16 48.16 0 0 0 9.63 2.76c12.72 2.34 17.92 14.54 17.32 23.06a37.91 37.91 0 0 1-9.47 22.54c-3.09 3.59-7.13 5.82-11.49 7.52-1.76.69-1.77.68-1.74 2.55a40.72 40.72 0 0 0 1.48 8.48c.18.77.75 1 1.3 1.43a47.23 47.23 0 0 1 12 11.43c6.57 9.46 10.8 19.81 11.6 31.43a93.72 93.72 0 0 1-2.26 27.13 7.08 7.08 0 0 0-.09.79c-1.46 5.56-2.73 11.17-4.3 16.71-4.43 15.63-9.71 31-14.38 46.58-.5 1.68-.54 1.67.84 2.68a8.28 8.28 0 0 1 1.8 1.59 2.68 2.68 0 0 1-1 4.33c-1.08.42-1.2 1-1.16 1.91.09 2.21.11 4.42.14 6.63q.17 16.31-13.24 25.59a1.94 1.94 0 0 0-1 1.95c.44 9.41-.74 18.72-1.73 28-.85 8.06-2.1 16.06-3.32 24.07a4 4 0 0 0 0 .6c.53.37 1 .09 1.53-.05 8.28-2.33 16.78-3.34 25.31-4.24 14.35-1.51 28.75-1.31 43.16-1.11 7.9.11 15.81.16 23.7.48a1.79 1.79 0 0 0 1.83-1.12 9.55 9.55 0 0 1 9.21-5c3.92.2 6.87 3 7.72 7a22.55 22.55 0 0 1-.59 10.33c-.45 1.82-.95 3.63-1.48 5.42a20.18 20.18 0 0 0 .19 11.87 18.79 18.79 0 0 1 .68 9.52c-1.48 7-5.41 12-12.39 14.21a5.8 5.8 0 0 1-7.25-2.71c-1.36-2.58-.5-4.76 2.25-5.71.57-.2 1.16-.33 1.72-.56a2.33 2.33 0 0 0 1.55-3.2 5.54 5.54 0 0 0-.88-1.79c-1.92-2.32-2.83-5.14-3.91-7.87-.21-.55-.43-1.1-.65-1.66-7.72 1.68-15.35 3.35-23 5-5.24 1.14-10.57 1.68-15.85 2.58-7.52 1.27-15 2.81-22.46 4.31a76.64 76.64 0 0 1-9.15 1.2c-4.68.37-9.32 1-14 1.46a137.63 137.63 0 0 1-15.86.37 110.39 110.39 0 0 1-11.63-.64c-6.24-.75-10.55-4.21-13.59-9.51a57.13 57.13 0 0 1-5.2-13.74c-1.86-6.86-2.69-13.91-3.67-20.94-1.55-11.2-2.43-22.5-4.82-33.58a2.25 2.25 0 0 0-.36-1.13 3.52 3.52 0 0 1-.95-2.16c-.77-3.67-1.93-7.25-2.52-11a2.74 2.74 0 0 0-2.18-2.54c-9.3-2.27-18.54-4.73-27.4-8.73a6.88 6.88 0 0 0-.17 2.64c-.21 8.16.1 16.32.46 24.47.16 3.68.62 7.37.25 11-.4 3.95-.17 7.87-.29 11.81a4 4 0 0 0 .13 1.78c.18 3.75.37 7.49.54 11.24.21 4.82.28 9.64.07 14.47-.26 5.75.39 11.52-.21 17.27a3.22 3.22 0 0 0 .21 1.17 6.6 6.6 0 0 1-.93 5.75c-2.28 3.35-5.29 5.43-9.55 5.28a59.28 59.28 0 0 1-6.77-.82 75.06 75.06 0 0 0-12.63-.47c-9.25.17-18.48-.11-27.59-2a57 57 0 0 1-8.07-2.39 8.55 8.55 0 0 1-2.27-1.26 5.29 5.29 0 0 1-.26-8.37 10.11 10.11 0 0 1 6.84-2.48c3.82 0 7.64 0 11.44-.38a36.36 36.36 0 0 0 7.11-1.23 4 4 0 0 0 2-1c-2.31-2.61-2.72-5.83-3-9.15-.47-6.75-1.16-13.49-1.51-20.24-.36-7.29-.92-14.57-1.35-21.86a4.21 4.21 0 0 0 .06-.79c-.65-12.58-.18-25.16-.36-37.74-.1-6.69-.28-13.38-.42-20.07a32.07 32.07 0 0 1 .31-4.8 13.91 13.91 0 0 1 5-9.11l2.3-1.95c-.47-.66-1.19-.67-1.74-1a8.91 8.91 0 0 1-2.14-1.46 3.05 3.05 0 0 1-.64-3.51 2.78 2.78 0 0 1 3.07-1.41c1.25.16 2.5.42 3.74.63 4.65.15 8.19-1.89 10.95-5.52a4.54 4.54 0 0 1 2.44-1.66c.74-.46 1.46-.94 2.21-1.37A6.11 6.11 0 0 1 186 340c3.66.78 7.32 1.58 11 2.05a45.27 45.27 0 0 0 20.42-1.69c.65-.22 1.21-.31 1.34-1.21.6-4.17 1.29-8.33 1.94-12.49a.88.88 0 0 0-.2-.85c-4.31 0-7.33-2.63-10.11-5.61a46.45 46.45 0 0 1-4.84-6.15q-4.19-6.37-8.27-12.82a74.85 74.85 0 0 1-5.49-10.92 131.81 131.81 0 0 0-6.49-13.57 27.81 27.81 0 0 0-11.55-11.39c-1.42-.73-2.75-1.65-4.12-2.47-3.43-1.11-6.45-5.64-6.51-9.77 0-2.56 0-2.56-2.59-3.33a6.33 6.33 0 0 1-3.23-1.93ZM90.55 226.08a12.68 12.68 0 0 1-7.25 1 11 11 0 0 1-7-4.36 54.89 54.89 0 0 1-4.82-7.85c-3.77-7.09-6.58-14.6-9.58-22-1.25-3.08-2.46-6.19-4-9.15a2.19 2.19 0 0 1-1-1.43c-2-5.32-5.28-10.06-6.94-15.52-2.41 6.29-4.62 12.54-10 17a31.21 31.21 0 0 1-2.77 2c-1.86 1.23-1.89 1.24-.63 3a62.25 62.25 0 0 1 7.73 14.68c.36 1 .88 2 .4 3.09a8 8 0 0 1-2.52 1.45c-1.11-.25-1-1.29-1.29-2a60.34 60.34 0 0 0-8-15.67 3.07 3.07 0 0 0-2.59-1.59c-7.13-.12-11.23-4.26-11.54-11.42a44.33 44.33 0 0 1 1.94-14.06c1.31-4.63 2.91-9.2 3.74-14a34.06 34.06 0 0 0-.86-14.53 35.9 35.9 0 0 1-.74-11.9 19.49 19.49 0 0 1 6.26-12 77 77 0 0 1 7-6 43.56 43.56 0 0 0 14.16-17.57 47 47 0 0 1 7.25-12 33.09 33.09 0 0 1 10.85-8.44 18.51 18.51 0 0 1 11.52-1.71A47.31 47.31 0 0 1 91 68.27a26.2 26.2 0 0 1 11.45 10.62 9.69 9.69 0 0 1 .82 8c-.37.25-.3.73-.54 1.05a4.13 4.13 0 0 0-.7 4.52c.55 1.28.09 2.78-.44 4.11a27.33 27.33 0 0 1-2 3.93 9.56 9.56 0 0 0-1.33 6.36 8.62 8.62 0 0 1-.9 5.64c-.34.58-.16.91.22 1.38a4.11 4.11 0 0 1 .62 4.12 11.43 11.43 0 0 1-1.67 3.19c-4.4 5.9-5 12.41-3 19.27.94 3.2 2.14 6.33 3.12 9.52A37.34 37.34 0 0 1 98 162.3c-.25 7.29-1.11 14.55-1.16 21.86a4.21 4.21 0 0 0 1.75 3.69c3.32 2.7 6.3 5.8 9.54 8.6 8.27 7.12 16.52 14.26 25 21.09.31.25.61.53.91.79.14 1.31-.21 2.32-1.64 2.66-2.27-.93-3.94-2.72-5.78-4.23-7.08-5.81-14.09-11.71-20.93-17.8-2.74-2.43-5.45-4.91-8.3-7.69a38.49 38.49 0 0 0 0 4.95c.62 4.4.33 8.82.32 13.22a4.11 4.11 0 0 0 2.18 3.91c9 5.67 17.91 11.47 27.6 15.93a3.63 3.63 0 0 1 1.64 1.12c0 1.16.15 2.39-1.32 2.87a215.47 215.47 0 0 1-30.75-17.74c-1.06 4.41-2.5 8.3-6.51 10.55Z"/><path fill="#a9eef1" d="M22.83 122.73c-.5 5 1 9.68 1.85 14.47a36.13 36.13 0 0 1-.93 17.46c-1.44 4.59-2.82 9.21-3.81 13.93a28.14 28.14 0 0 0-.22 11.56 9.6 9.6 0 0 0 10.94 7.74 1.69 1.69 0 0 1 1.84.78 59.28 59.28 0 0 1 9.11 17.77 3.05 3.05 0 0 0 .59 1.47c-.84 1.69-.66 3.72-1.77 5.33a2 2 0 0 1-1.73.16 32.1 32.1 0 0 0-6.32-1c-.49 0-1.27.07-1.24-.85.15-.67-.42-.74-.8-1a123.07 123.07 0 0 1-14.18-9.4A51.94 51.94 0 0 1 3.49 187.4a25.24 25.24 0 0 1-3.06-9.67A28.22 28.22 0 0 1 0 173a51.65 51.65 0 0 1 1.9-12.41c1.3-4.63 3.8-8.67 6.16-12.78a148.63 148.63 0 0 1 10.84-15.87 27 27 0 0 1 2-2.52 5.56 5.56 0 0 0 1.63-4.73 2.19 2.19 0 0 1 .3-1.96Z"/><path d="M76.11 328.4a2.9 2.9 0 0 1 3-1c.1 0 .18.32.26.5-1.3 7.31-3.14 14.51-4.7 21.77a197.92 197.92 0 0 0-3.7 24.21c-.1 1.13-.11 2.27-.11 3.41 0 8.64.38 17.28 1 25.9.44 6.49.76 13 1 19.47a185.08 185.08 0 0 0 3.82 28.23c.83 4.27 1.77 8.52 3 12.69a13.15 13.15 0 0 0 5 7.3 35.83 35.83 0 0 0 6 3.67 9.64 9.64 0 0 1 1.41.77c4.55 3.09 9.56 5.35 14.32 8.07a14.85 14.85 0 0 1 2.36 1.52 3.08 3.08 0 0 1-1 5.32 5.57 5.57 0 0 1-1.56.33 38.38 38.38 0 0 1-8-.23 25 25 0 0 0-6.41-.14 61.39 61.39 0 0 1-17.8-.48c-5.34-1-10.69-1.82-16-2.77-3.23-.58-4.34-1.89-4.54-5.13a10.81 10.81 0 0 1 0-1.8c.89-8.65-.45-17.07-2.37-25.48-1.74-7.61-4.63-14.79-7.34-22.06a77.49 77.49 0 0 1-4.4-15.62 30 30 0 0 1-.23-4c-.12-6.7.47-13.38.74-20.07.34-8.44.65-16.88.51-25.32a116.9 116.9 0 0 0-1.45-13.58 68.94 68.94 0 0 0-1.59-8.88c.82-.66 1.63-1.33 2.76-.61a2.77 2.77 0 0 1 1.07 2.28c1 6.55 2.24 13 2.53 19.7a255.84 255.84 0 0 1-.92 33.46 72.44 72.44 0 0 0 6 36.21 112.78 112.78 0 0 1 7.87 29.21c.63 4.37 1.09 8.78.32 13.2v.4c-.24 4.09 0 4.45 4.06 5 5.18.75 10.29 1.83 15.45 2.61a44.6 44.6 0 0 0 14.4.19 29.06 29.06 0 0 1 9 .28 17.11 17.11 0 0 0 4.95 0 35.19 35.19 0 0 0-4.42-2.71c-4.49-2.27-8.69-5-13.14-7.36a22.06 22.06 0 0 1-12-15.68c-2-9.36-4-18.74-5.14-28.25-.59-4.72-.71-9.47-1-14.21q-.85-13.11-1.47-26.23c-.46-10.23-.47-20.47 1.21-30.65 1.47-8.87 3.42-17.62 5.42-26.37.36-1.56.67-3.14 1-4.72a3.22 3.22 0 0 1 .83-2.35Z"/><path fill="#a9eef1" d="M202.58 446.67a4.58 4.58 0 0 1-.24-2.17c-.05-3.74-.1-7.49-.09-11.24 0-6.3-.42-12.58-.6-18.87-.2-6.68-.23-13.37-.33-20.06 0-.05.06-.11.12-.2a2 2 0 0 1 .54.1 137.18 137.18 0 0 0 26.48 8.52c2.71.63 3.9 1.72 4.17 4.46.35 3.52 1.65 6.88 2.36 10.35.12.59.18 1.18.26 1.78a55.7 55.7 0 0 0-5.38 3.76 73.29 73.29 0 0 1-12.55 6.6 92.15 92.15 0 0 1-13.22 4.46c-1.17.3-1.51.8-1.49 1.91.06 2.87.06 5.74.06 8.61 0 .67-.06 1.32-.09 1.99Z"/><path d="M31.14 211.57a61.12 61.12 0 0 1 9.29 1.67c.35.61 0 1.16-.17 1.73-.57 2.67-1.4 5.27-2 7.94a36.05 36.05 0 0 1-7.61 15c.11.77-.45 1-1 1.27a37.11 37.11 0 0 1-11.41 7.68 29.52 29.52 0 0 0-9 5.93A14.38 14.38 0 0 0 6 257.58a6 6 0 0 0 1.15 6.53c1 1.23 1.2 1.92.51 2.56s-1.86.49-2.8-.62a8.74 8.74 0 0 1-1.8-9.16 19.17 19.17 0 0 1 6.62-8.4 46 46 0 0 1 9.23-5.24 27.7 27.7 0 0 0 11.56-10 37.82 37.82 0 0 0 3.75-7.25 3.19 3.19 0 0 0 .16-.73c.07-.1.17-.27 0-.3s0-.11 0 .15a1.86 1.86 0 0 1-.61.44 79.23 79.23 0 0 1-8.64 8.35 20 20 0 0 1-2.24 1.67 2.81 2.81 0 0 1-3.22.06 2.87 2.87 0 0 1-1-3.22 10.2 10.2 0 0 1 1.33-3.33 33.87 33.87 0 0 1 7-8.65 3.53 3.53 0 0 0 1.19-1.21 8 8 0 0 0-2.14.1 23.05 23.05 0 0 1-7.18-.08 4.33 4.33 0 0 1-1.83-.78 2.47 2.47 0 0 1 0-4.09 7.46 7.46 0 0 1 2.3-1.21 24.81 24.81 0 0 1 8.22-1.56Z"/><path fill="#39c4bc" d="M333.37 139.63a11.24 11.24 0 0 1-3.49 1.39 5.31 5.31 0 0 1-1.19.09.84.84 0 0 1-.83-.72c-.06-.38.18-.62.43-.86.52-.49 1.26-.36 1.87-.63a5.14 5.14 0 0 0 1.95-1 13 13 0 0 0 4.74-4.79c.93-1.39 1.71-2.88 2.58-4.3.52-.86 1.08-1.7 1.67-2.5a5.41 5.41 0 0 1 6-2.38c2.57.64 4.23-.55 5.76-2.29.8-.9 1.59-1.81 2.43-2.67a5 5 0 0 1 4.15-1.64 6 6 0 0 0 5.48-2.29 29.77 29.77 0 0 1 2.77-2.61c.52-.45 1.14-.85 1.77-.2s.2 1.24-.3 1.73q-2 2-4.05 3.9a5.6 5.6 0 0 1-4.61 1.56 4.86 4.86 0 0 0-4.55 2c-.68.82-1.44 1.58-2.16 2.38a6.56 6.56 0 0 1-6.65 2.34c-2.3-.54-3.72.46-4.83 2.27q-1.26 2.06-2.5 4.11c-1.73 2.79-3.61 5.38-6.44 7.11ZM131.89 76.49a14.43 14.43 0 0 1 2.66 6.56 20 20 0 0 1 .1 2.18c0 .66-.28 1.21-1.05 1.18s-.88-.54-.91-1.12a18.6 18.6 0 0 0-.32-3 9.7 9.7 0 0 0-3.37-5.42 17.75 17.75 0 0 0-3.55-2.25 26.15 26.15 0 0 1-4.09-2.55A9 9 0 0 1 118 67a9.11 9.11 0 0 0-4.2-5.85 24.28 24.28 0 0 1-9-10.56c-.5-1.1-1.12-2.13-1.66-3.21-.32-.65-.46-1.34.33-1.74s1.16.13 1.48.67a22.58 22.58 0 0 1 1.45 2.64A24.37 24.37 0 0 0 116 60a8.22 8.22 0 0 1 3.78 5.26 9.53 9.53 0 0 0 5.34 6.64 32 32 0 0 1 6.77 4.59ZM289.44 69.54c-.53 1.36-.59 2.83-1.12 4.21a24.8 24.8 0 0 1-5.26 8.9 9.42 9.42 0 0 1-2.77 1.94 1 1 0 0 1-1.51-.53c-.25-.51.11-.91.54-1.15 4.35-2.44 5.87-6.75 7.29-11.08a11.46 11.46 0 0 0 .82-3.89 16.9 16.9 0 0 1 1.57-5.77 10.1 10.1 0 0 1 3.37-3.9 11.38 11.38 0 0 0 5.13-7.82 14.48 14.48 0 0 1 5-8.25 5.12 5.12 0 0 1 .63-.5 1.05 1.05 0 0 1 1.45.07 1 1 0 0 1-.09 1.43c-.5.54-1 1-1.55 1.57a10.88 10.88 0 0 0-3.13 5.5c-.19.91-.45 1.82-.73 2.71a10.46 10.46 0 0 1-4.12 6c-3.96 2.5-5.3 6.2-5.52 10.56ZM188.67 1a2.35 2.35 0 0 1-.45 1.31c-2.32 3.47-3.06 7.39-3.19 11.45a12 12 0 0 1-2.09 6.6 13.17 13.17 0 0 0-1.64 12.06 19.52 19.52 0 0 1 1 5.31 10.22 10.22 0 0 1-1.77 6.27 20 20 0 0 1-3.16 3.88.9.9 0 0 1-1.27.14.92.92 0 0 1-.09-1.42c.49-.64 1-1.26 1.52-1.86a10.21 10.21 0 0 0 2.05-10.5 22.7 22.7 0 0 1-1.16-6.29 12.21 12.21 0 0 1 2-7.45 15.58 15.58 0 0 0 2.58-8.73 20.11 20.11 0 0 1 3.22-10.42 3.1 3.1 0 0 1 1-1.22.92.92 0 0 1 1.45.87ZM18.88 47.07h-2.21a7.31 7.31 0 0 1-5.54-2.84 11.34 11.34 0 0 1-2.38-6.7 4.32 4.32 0 0 1 .1-1.19 1 1 0 0 1 1.15-.87.87.87 0 0 1 .75 1.18 6.56 6.56 0 0 0 .74 4.06c1.3 3.29 3.64 4.65 7.11 4.17a17.31 17.31 0 0 1 2.6-.21 4.56 4.56 0 0 1 4.9 3.63c.32 1 .56 2.06.83 3.1a4.81 4.81 0 0 0 3.41 3.6c.9.27 1.79.56 2.68.87a14.28 14.28 0 0 1 6.68 4.93 7.36 7.36 0 0 1 .83 1.37 1.1 1.1 0 0 1-.23 1.46c-.57.42-1 .07-1.4-.32a3.74 3.74 0 0 1-.51-.62 12.56 12.56 0 0 0-7.78-5.29c-3.41-.83-5.31-3.07-6.1-6.46-.98-4.15-1.05-4.14-5.63-3.87Z"/><path fill="#020202" d="M293.15 73.21a20.68 20.68 0 0 1-1.27 4 20.16 20.16 0 0 1-1.24 2 .9.9 0 0 1-1.57-.84 12.25 12.25 0 0 1 .62-1.26 10.34 10.34 0 0 0 1.37-5.55c.14-1.06.29-2.11.42-3.17a8.81 8.81 0 0 1 3.06-5.9c.56-.48 1.1-1 1.68-1.44a11.63 11.63 0 0 0 3.78-5.49 9.15 9.15 0 0 1 1.23-2.72 1.05 1.05 0 0 1 1.39-.44 1 1 0 0 1 .43 1.38c-1.33 3.43-2.53 6.94-5.75 9.18a8.76 8.76 0 0 0-4 7.26c0 1-.08 1.99-.15 2.99Z"/><path fill="#030202" d="M130.19 70.2a1 1 0 0 1-1.45.93c-2.87-1.41-5.93-2.67-6.78-6.28a8.82 8.82 0 0 0-4.32-5.52c-1-.6-2-1.17-2.89-1.8a10.45 10.45 0 0 1-3.86-4.75 5.52 5.52 0 0 1-.4-1.33.9.9 0 0 1 .64-1.1.88.88 0 0 1 1 .47 2.65 2.65 0 0 1 .27.53 10.26 10.26 0 0 0 5.21 5.57 24 24 0 0 1 2.84 1.87 8.65 8.65 0 0 1 3.37 4.84 6.36 6.36 0 0 0 3.85 4.55 18.83 18.83 0 0 1 1.75 1 1.47 1.47 0 0 1 .77 1.02Z"/><path fill="#030303" d="M186.93 15.48v-1.46a1 1 0 0 1 1-1.07 1 1 0 0 1 1.08 1c.26 2.21.4 4.41-.6 6.5-.5 1-1 2-1.55 3a9 9 0 0 0-.64 7.19 25.85 25.85 0 0 1 1 4.69 10.42 10.42 0 0 1-.57 4.73c-.2.62-.53 1.17-1.28 1s-.83-.77-.59-1.43a10.84 10.84 0 0 0-.33-7.47 12.23 12.23 0 0 1 1.12-11 8.12 8.12 0 0 0 1.36-5.68Z"/><path fill="#030202" d="M16.25 38.32c.12.07.43.15.54.35 1.3 2.2 3.47 2.28 5.63 2.31a7 7 0 0 1 4.3 1.42 6.41 6.41 0 0 1 2.56 4 6.06 6.06 0 0 0 4.32 4.8c.69.26 1.39.49 2.06.79a4.49 4.49 0 0 1 1.17.75A1 1 0 0 1 37 54a.86.86 0 0 1-1.06.36c-2.42-.94-5-1.59-6.87-3.58a7.32 7.32 0 0 1-1.64-3.16c-1-3.47-2.19-4.45-5.82-4.6a10.38 10.38 0 0 1-3.89-.85 4.29 4.29 0 0 1-2.36-2.35c-.36-.82.08-1.54.89-1.5ZM359.19 124.26a1.28 1.28 0 0 1-.61 1 9.12 9.12 0 0 0-1.68 1.4 10.68 10.68 0 0 1-8.24 3.92 5 5 0 0 0-4.57 3 19.22 19.22 0 0 1-4.14 5.62 2.94 2.94 0 0 1-1.5.94.89.89 0 0 1-1-.48.84.84 0 0 1 .1-.94.93.93 0 0 1 .13-.15c2.53-1.92 3.87-4.73 5.46-7.35a5.11 5.11 0 0 1 3.89-2.52c.46-.07.92-.19 1.38-.22a9.36 9.36 0 0 0 7.14-3.49 4.46 4.46 0 0 1 2.25-1.62 1 1 0 0 1 1.39.89Z"/><path fill="#030303" d="M10.3 108c0-.63 0-1.29.83-1.39s1 .51 1.16 1.11c.39 2 .68 4 1.1 5.91.7 3.27 1.48 6.51 2.19 9.78.16.73.64 1.62-.4 2.09-.68.31-1.15-.2-1.55-1.65-1.25-4.57-2.26-9.21-3.11-13.88-.12-.68-.15-1.36-.22-1.97Z"/><path fill="#050505" d="M314.78 379.31a61.6 61.6 0 0 1-1.67 10.46 10.54 10.54 0 0 1-.89 2.21c-.29.55-.75 1-1.46.64a1 1 0 0 1-.42-1.39c.28-.89.63-1.76.86-2.66a56.61 56.61 0 0 0 1.53-8.86v-.6c.07-.8 0-1.71 1.08-1.87.74-.1 1.03.62.97 2.07Z"/><path fill="#070606" d="M6.9 119.08a1.33 1.33 0 0 1 1.16.86c.66 1.16 1.29 2.33 1.94 3.49s1.41 2.56 2.15 3.82c.33.57.56 1.15 0 1.6s-1.28.05-1.64-.54c-.84-1.36-1.64-2.74-2.42-4.13-.65-1.16-1.3-2.33-1.86-3.53-.41-.78-.06-1.49.67-1.57Z"/><path fill="#070707" d="M377.32 446.71a.94.94 0 0 1-1-.84 2.7 2.7 0 0 1 .35-1.73 22 22 0 0 1 4-5.73 3.66 3.66 0 0 1 .94-.73.86.86 0 0 1 1.24 1 3.14 3.14 0 0 1-.95 1.5 17.35 17.35 0 0 0-3.65 5.67c-.25.64-.51.84-.93.86ZM318.57 389a18.36 18.36 0 0 1-2.8 6.36 4.67 4.67 0 0 1-.66.75 1.05 1.05 0 0 1-1.45.22c-.52-.4-.43-.93-.08-1.43a20.22 20.22 0 0 0 3.11-6.46c.16-.6.48-1 1.13-.88s.76.44.75 1.44Z"/><path fill="#0a0909" d="M399.3 501.47a.9.9 0 0 1 .8.94 1.67 1.67 0 0 1-.47 1.08 16.48 16.48 0 0 1-3.87 3.44 1.81 1.81 0 0 1-1.32.36 1 1 0 0 1-.87-.72.82.82 0 0 1 .38-1c1.8-.74 3-2.2 4.28-3.53a1.4 1.4 0 0 1 1.07-.57Z"/><path fill="#0a0a0a" d="M372 443.78c.11-.75.27-1.94.47-3.12a3.39 3.39 0 0 1 .39-1.12c.26-.49.64-.92 1.27-.67a1 1 0 0 1 .57 1.33 19.69 19.69 0 0 0-.66 5.72.75.75 0 0 1-.66.86 1 1 0 0 1-1.13-.6 5.74 5.74 0 0 1-.25-2.4Z"/><path fill="#0d0b0b" d="M396.46 509.74a2.9 2.9 0 0 1 .59-.09.89.89 0 0 1 1 .51.92.92 0 0 1-.42 1.21 5.32 5.32 0 0 1-3.72.36.82.82 0 0 1-.6-.93 1 1 0 0 1 .76-.84c.64-.12 1.32-.13 2.39-.22Z"/><path fill="#a9d6d8" d="M29.68 239.21c.16-.56.64-.86 1-1.27.56.87-.12 1.46-.49 2.11-.08-.34-.08-.72-.51-.84Z"/><path fill="#a4b1b1" d="M33.76 225.56a1.35 1.35 0 0 1 .83-.91.44.44 0 0 1 .07.58.94.94 0 0 1-.44.77Z"/><path fill="#39c4bc" d="M203.54 154.06c-.61 0-1.11 0-1.25-.61s.15-.81.62-1.09c4.42-2.63 6.31-6.69 6.5-11.68a12.2 12.2 0 0 0 0-1.6 8.11 8.11 0 0 1 3-7.13 10.89 10.89 0 0 0 3.45-7 16.14 16.14 0 0 1 3.87-8.22 26.16 26.16 0 0 0 4.63-8.15c.07-.19.07-.4.15-.58.21-.44.5-.84 1.06-.74s.84.57.88 1.17a5.87 5.87 0 0 1-.72 2.69 24.35 24.35 0 0 1-4.05 6.67 17.22 17.22 0 0 0-4.07 9.19 9.93 9.93 0 0 1-3 5.75c-.43.42-.86.84-1.27 1.29a6.63 6.63 0 0 0-1.81 4.53 26.25 26.25 0 0 1-.33 5.8 16.47 16.47 0 0 1-5.91 9 2.46 2.46 0 0 1-1.75.71ZM246.48 154.08c-1.64.65-1.79.9-1.54 2.61.46 3.22.33 3.34-2.7 2.42a8.58 8.58 0 0 0-5.48.31c-.91.31-1.9 1-2.79.1s-.12-1.9.15-2.81a18 18 0 0 0 1.11-4.85 7.23 7.23 0 0 0-.43-2.75c-.46-1.17.09-1.8 1.32-1.54a11.15 11.15 0 0 1 1.66.68 8.87 8.87 0 0 0 1.51.49c.69.14 1.18-.06 1.17-.91v-1.79c1.29.47.84 1.58.85 2.47a5.26 5.26 0 0 1-.59 2.47l-.12.15c-.73 1.07-2.45-.81-2.84.89-.23 1-.24 2.12-.53 3.16a2.24 2.24 0 0 0-.13 1.16c1.26 0 2.57-.06 3.87-.06.95 0 1.3-.55 1.19-1.44a11.09 11.09 0 0 1 .31-2.23 1.47 1.47 0 0 0-.3-2 2.28 2.28 0 0 1 .49-2 1.71 1.71 0 0 1 .46-.39c1.27-.62 2.7-1.28 3.88-.17s-.08 2.28-.51 3.39a5.14 5.14 0 0 1-.29.51c-.6.77-.2 1.45.28 2.13ZM145.22 113.72a.92.92 0 0 0-.89 1.09 21.35 21.35 0 0 1 0 2.4c-.08 1.25-.87 1.82-1.87 1.17-2.12-1.39-4.31-1.11-6.57-.65a5.31 5.31 0 0 1-.79.09c-1.45 0-2-.67-1.39-2a30.52 30.52 0 0 0 1.41-4.17 11 11 0 0 0 0-3.76c0-.57-.27-1.25.42-1.61s1.18 0 1.67.38a4.8 4.8 0 0 0 3.12 1.18c.74 1 .37 1.81-.51 2.5-.65.29-1.68-.5-2 .39a14.87 14.87 0 0 0-.56 3.54c0 .45.42.47.76.41a6.5 6.5 0 0 1 2.77.27c.3.09.71.26.8-.24s-.23-.57-.57-.71c-.57-.22-1.42 0-1.57-.93.84-.81 2.55-.31 2.86-1.9.39-.76-.71-.8-.68-1.38.2-1.39-.29-2.93.93-4.08.76 1.89 2.47 1.16 3.83 1.37 1.13.69.9 1.64.45 2.59-.28.59-.73 1.1-1.06 1.66a2.86 2.86 0 0 0-.56 2.39Z"/><path fill="#020202" d="M246.48 154.08c-1.63-.26-1.66-.35-.77-2.17.66-.66 2 .07 2.37-1.39.6-2.67.57-2.82-2.25-3-1.12 0-2.62-.91-3 1.15a5.66 5.66 0 0 0-.31 2.12c.53.47-.55 1.3.38 1.68a4.74 4.74 0 0 1-.52 2.31 1.72 1.72 0 0 1-2.42.5c-1-.58-.84-1.53-.62-2.46a4.11 4.11 0 0 1 .93-1.7c.3-1.71.89-3.4.17-5.13v-.4c-.07-.78-.38-1.62.49-2.18s1.43.28 2.1.63c2.14 1.12 4.37.92 6.61.35.32-.08.6-.29.92-.38 1.2-.36 1.82.24 1.51 1.46a4 4 0 0 1-.37.92 9.87 9.87 0 0 0-.85 5.46 13.37 13.37 0 0 1 .1 1.4c0 1.24-.62 1.72-1.8 1.36a7.05 7.05 0 0 0-2.67-.53ZM145.22 113.72c-1.21-.75-.45-1.56-.06-2.35 1.26 0 2-.6 2-1.93 0-.72.49-1.38.28-2.12-.49-.49-1.11-.32-1.69-.37a5.28 5.28 0 0 1-3.06-1l-.72 4.17c-.33.87.73.52.86 1-.58 1.93-.58 1.93-3.25 2-1.46-.85-1.45-1.37.07-3a2.74 2.74 0 0 0 .7-2.32 6.62 6.62 0 0 0 .22-3.36 1.61 1.61 0 0 1 .59-1.78c.68-.43 1.25 0 1.8.43a8.72 8.72 0 0 0 5.67 1.54c.4 0 .8-.06 1.2-.08.67 0 1.4-.12 1.74.62s-.07 1.15-.46 1.63a7.77 7.77 0 0 0-1.57 5.64c0 .4.08.8.07 1.2 0 1.22-.69 1.71-1.84 1.28a26.12 26.12 0 0 1-2.55-1.2Z"/><path fill="#22b5bc" d="M132.4 220.78c1-.51 1.18-1.59 1.66-2.45a20.78 20.78 0 0 1 1.51-1.86c1.34-1.32 3-.87 3.46 1a5.52 5.52 0 0 1-.11 3c-.12.45-.22.91-.33 1.36-1.15.32-1.4-.59-1.8-1.3-.12-.28 0-.72-.23-.84s-.27.34-.42.54a22.1 22.1 0 0 0-1.24 2.77c-1.66 2.67-2.46 5.68-3.46 8.62-.37.85-.54 1.77-.88 2.64a5.78 5.78 0 0 0-.31.72c.19-.19.26-.51.55-.63.89 0 1.77.11 2 1.25-.78.27-.92 1.1-1.42 1.62-.64.67-1.36 1.17-2.28.78a2.18 2.18 0 0 1-1.16-2.16c0-.83.64-1.67 0-2.49 1-.66.64-1.93 1.16-2.81a1.33 1.33 0 0 1-.11-1.32c.94-2.93 1.76-5.85 3.41-8.44Z"/><path fill="#020202" d="M222.84 123.54c0 .13 0 .3-.05.39-1.08 1.52-.79 3.35-1.13 5a9 9 0 0 1-2.14 4.25c-.53.6-1.05 1.22-1.63 1.77a6.21 6.21 0 0 0-2 5.22 18.55 18.55 0 0 1-.28 5.2 13.11 13.11 0 0 1-2 4.36 2.51 2.51 0 0 1-.53.6.89.89 0 0 1-1.26 0 .84.84 0 0 1-.21-1.08 2.7 2.7 0 0 1 .3-.52 11 11 0 0 0 1.89-7.83 8.88 8.88 0 0 1 3.08-8.07 8.47 8.47 0 0 0 2.9-6.58 4.73 4.73 0 0 1 1.26-3.3 1 1 0 0 1 1.28-.26.91.91 0 0 1 .52.85Z"/><path fill="#23b5bc" d="M185.46 86.45a9.58 9.58 0 0 1 1.39-3.45 5.77 5.77 0 0 1 6.25-2 5.82 5.82 0 0 1 1.66 10.49c-.56.35-1.14.68-1.71 1-.63-1-.14-2 .06-3a.77.77 0 0 1 .22-.33 3.24 3.24 0 0 0 .08-5.19c-1.55-1.18-3.48-.59-4.85 1.44-.75 1.44 1.17 1.31 1.31 2.22-.84.72-.92 1.34.2 1.85.58.27 1.23.45 1.52 1.11a1.77 1.77 0 0 1-1.29 2.13 5.67 5.67 0 0 1-4.45-3.31 4.2 4.2 0 0 1-.39-2.96Z"/><path fill="#020202" d="M281.34 115.86c1.54-2.13 3.5-3.28 6.2-2.55a5.33 5.33 0 1 1-4.84 9.23c-.4-.34-.75-.75-1.13-1.13-1.72-1.82-1.8-3.53-.23-5.55Z"/><path fill="#23b5bc" d="M146.63 228a5.4 5.4 0 0 0-1.46 2.73 19.44 19.44 0 0 1-2.91 5.42 4.65 4.65 0 0 0-.66 3c0 .74.37.58.79.35a4.14 4.14 0 0 1 2 .84c-.63.67-.83 1.63-1.6 2.24-1.32 1.06-2.46.86-3.2-.67a3.28 3.28 0 0 1-.35-2.5 1.44 1.44 0 0 0-.21-1.31 8.7 8.7 0 0 1 .56-2.85 55.85 55.85 0 0 1 3.13-6.05 11.56 11.56 0 0 1 1.77-2.72c.83-.24 1.19-1 1.79-1.53a1.79 1.79 0 0 1 2-.44 2 2 0 0 1 1.2 1.69 6 6 0 0 1-.75 3.25 4.32 4.32 0 0 1-2.05-1.36l.05-.16Z"/><path fill="#22b5bc" d="M138.39 237.92c-.57.17-.75.69-1 1.12-.9 1.3-1.66 1.7-2.57 1.41s-1.39-1.48-1.11-2.9c.16-.81.15-1.4-.53-1.9a9.59 9.59 0 0 0 1-3 78 78 0 0 1 3.41-7.44c.59-.95.89-2.11 2-2.7a16.69 16.69 0 0 1 1.4-1.39 1.78 1.78 0 0 1 3.01 1.18 6 6 0 0 1-.56 3.28c-1.16.44-1.51-.47-2-1.17-.05-.11 0-.25-.08-.36a2.08 2.08 0 0 0-.06.36 27.37 27.37 0 0 1-1.15 2.6 47.83 47.83 0 0 0-3.1 7c-.36.84-.53 1.74-.86 2.6a10.69 10.69 0 0 0-.47 1.1 2.24 2.24 0 0 1 .67-1c.88.04 1.68.29 2 1.21Z"/><path fill="#020202" d="M207.64 250.9c-.6-2.35-.4-4.5 1.6-6.17a5.37 5.37 0 0 1 7.11.05 5.51 5.51 0 0 1 .73 7.25 11.15 11.15 0 0 1-.79.89c-1.17-.17-1.22-1.12-1.38-2a5.45 5.45 0 0 1 .14-.58c.6-2.16 0-3.62-1.67-4s-2.86.53-3.37 2.76a2.42 2.42 0 0 0 1.32 2.17l.51.22a5.1 5.1 0 0 1 1.69.6c.76 1.47.43 2.38-1.31 2.57a4.17 4.17 0 0 1-2.71-.87c-.84-.79-1.85-1.54-1.87-2.89Z"/><path fill="#030303" d="M189.66 87.59c-.1-.07-.2-.19-.31-.21-1.77-.38-1.77-.38-1.25-2.16a4.08 4.08 0 0 1 5.43 4.23 15.82 15.82 0 0 1-.48 3 4.85 4.85 0 0 1-4.8 2.65 4.57 4.57 0 0 1-4.22-3.2 4.64 4.64 0 0 1 1.43-5.43c.22.93.43 1.87.65 2.8.58 2.73 1.3 3.27 4.13 3.14a1.83 1.83 0 0 0 1.07-2c-.31-1.05-1.31-1.77-1.65-2.82Z"/><path fill="#020303" d="M140.35 166.53c2.35.59 3.58 1.94 3.72 4.06a4.58 4.58 0 0 1-8.31 3.06c-.21-.26-.38-.54-.57-.81-.81-.84-.63-1.86-.56-2.87a4.67 4.67 0 0 1 2.49-3.26c1.22.07 2 .58 1.86 1.95-.39.78-1.36 1.23-1.33 2.26a1.85 1.85 0 0 0 1.36 1.82c2.21-.22 2.58-.74 2.05-2.91-.28-1.09-.94-2.1-.71-3.3Z"/><path fill="#23b5bc" d="M212 254.2c1.83-.26 1.87-.34 1.08-2.13-.24-.26-.6-.13-.88-.28a1.78 1.78 0 0 0-1.15-.22 3 3 0 0 1-1.42-2 3.72 3.72 0 0 1 5.53 1.42c.56.56.43 1.53 1.17 2-.16.58-.3 1.15-.47 1.72a4.41 4.41 0 0 1-5.38 3.2c-2.55-.75-3.71-2.87-3.07-5.58.11-.45.18-.91.27-1.36a9.36 9.36 0 0 0 1.84 2.4 2.25 2.25 0 0 0 2.15 1.87c1.33-.01.08-.75.33-1.04ZM135 169.77a10.54 10.54 0 0 0 .18 3.07c-2.43-1.54-3.22-3.5-2.26-5.68a4.19 4.19 0 0 1 7.42-.63c.64.92.65 2.08 1.12 3.07a4.13 4.13 0 0 1-2.94 3.57 2.24 2.24 0 0 1-1.35-2.22c.47-.73 1.24-1.27 1.47-2.17.31-1.25-.78-1.38-1.46-1.85-1.41.42-2.34 1.21-2.18 2.84Z"/><path fill="#040606" d="M139.54 222.47a7.67 7.67 0 0 1-1.65 2.61 4.07 4.07 0 0 1-3.19-2.44c-.16-1.17.61-1.95 1.18-2.81a1 1 0 0 1 1.18.65 4.36 4.36 0 0 0 1.53 1.27Z"/><path fill="#030606" d="M140 226.77c0-1.09.82-1.8 1.19-2.72.14-.28.26-.28.35 0a4.08 4.08 0 0 0 1.94 1.51l1.1.93a4 4 0 0 1-1.47 2.69 4.13 4.13 0 0 1-3.11-2.41Z"/><path fill="#28b4ba" d="M281.34 115.86a6.26 6.26 0 0 0 .23 5.55 2.72 2.72 0 0 1-2.49-2.46c-.21-1.28.59-2.28 2.26-3.09Z"/><path fill="#a22a28" d="m178.09 332 .78-.12c1.88-.39 2.4 0 2.52 1.94v1.4c0 1.85-.12 2-2.07 2.53a2.31 2.31 0 0 1-1.48.94c-3.4.77-6.76 1.67-10.14 2.49a3.06 3.06 0 0 1-2.15-.18c-2 .14-2.33-.14-2.43-1.87v-.79c0-2.54.13-2.74 2.54-3.5a6.59 6.59 0 0 0 .71-.34 5.25 5.25 0 0 1 2.37-.93c2.28-.47 4.53-1.05 6.82-1.5a4.62 4.62 0 0 1 2.53-.07Z"/><path fill="#ca403e" d="M165.59 341c3.24-.46 6.33-1.54 9.51-2.21 1.43-.3 2.84-.69 4.26-1 .07 1.35-.63 2.69-.07 4.05-1.28 1.34-2.54 2.7-3.87 4a12 12 0 0 1-7 3.53 3.52 3.52 0 0 1-2.52-.35c0-2.23 0-4.47.07-6.7a1.88 1.88 0 0 0-.38-1.32Z"/><path fill="#e3ae28" d="M170.05 329a43.46 43.46 0 0 0-3.75-4.16 3.15 3.15 0 0 1-1-1.45c-.47-1.84 1.71-5.82 3.52-6.39.19-.06.39-.09.58-.14 4.24-1 3.14-1.25 6 1.58a3.54 3.54 0 0 1 .92 4 48.27 48.27 0 0 1-2.51 6.1 4.37 4.37 0 0 1-3.76.46Z"/><path fill="#3bc4bc" d="M170.05 329a8.07 8.07 0 0 1 3.74-.47 9.67 9.67 0 0 1 4.3 3.52 5.29 5.29 0 0 1-2.44.49c-3.63-1.89-3.63-1.89-6.77 1.52a6.57 6.57 0 0 1-2.48.49 8.46 8.46 0 0 1 3.65-5.55Z"/><path fill="#3dc6be" d="M181.93 309.3a1.09 1.09 0 0 1-.53 1 17.91 17.91 0 0 0-3.86 2.77.87.87 0 0 1-1.25.12.94.94 0 0 1-.08-1.42 11 11 0 0 1 4.4-3.28c.64-.3 1.14.12 1.32.81Z"/><path fill="#3cc5be" d="M157.38 314.43a9.79 9.79 0 0 1 3.77 1.18 1.51 1.51 0 0 1 .89 1.25 1 1 0 0 1-.38.88c-.39.32-.74.15-1.09-.1a6.32 6.32 0 0 0-3.56-1.2c-.71 0-1.52-.2-1.51-1s.87-1.02 1.88-1.01Z"/><path fill="#3dc6be" d="M173.73 313.14c-.75-.2-1.21-.63-1.07-1.3a7.42 7.42 0 0 1 2.79-4.47 1.05 1.05 0 0 1 1.46.1c.44.44.25.88-.1 1.23a8.93 8.93 0 0 0-2.3 3.68 1.22 1.22 0 0 1-.78.76Z"/><path fill="#050505" d="M134.48 232.92a7.85 7.85 0 0 1-.47 2.24c-.13.52-.51.47-.88.49a1.26 1.26 0 0 0-.37-.13c-.52-.7-1.38-.7-2.1-1a.26.26 0 0 1-.35-.13 6 6 0 0 1 .68-2.92 3.32 3.32 0 0 1 3.49 1.45Z"/><path fill="#050606" d="M135.93 236.81a5.2 5.2 0 0 1 .7-2.88 3.2 3.2 0 0 1 3.48 1.38c-.23 1-.23 2.05-1 2.82l-.68-.21a5.83 5.83 0 0 0-2.09-.95.31.31 0 0 1-.41-.16Z"/><path fill="#40c7bf" d="M160.59 319.41a1 1 0 0 1-.72.88c-.9.23-1.82.4-2.74.54a.9.9 0 0 1-1-.55.88.88 0 0 1 .22-1.09 4.31 4.31 0 0 1 3.63-.55 1.16 1.16 0 0 1 .61.77Z"/><path fill="#fff" d="M76.11 328.4c-1 6.22-2.62 12.3-4 18.45-2 9-3.74 18.12-4.18 27.37a207.54 207.54 0 0 0 .5 24.3c.3 4.27.42 8.56.71 12.84.52 7.68.56 15.4 1.61 23.05a209.8 209.8 0 0 0 6 30.29 15.47 15.47 0 0 0 6 8.56 41.44 41.44 0 0 0 6.47 4 5.34 5.34 0 0 1 .89.46c4.9 3.3 10.26 5.76 15.37 8.67.34.19.66.41 1 .62-.2.72-.74.64-1.15.65a33 33 0 0 1-5.62-.16 34 34 0 0 0-9.4-.19 54.15 54.15 0 0 1-17.59-.84c-4.59-.92-9.23-1.59-13.85-2.37-2.41-.41-2.64-.7-2.65-3.13a13 13 0 0 1 0-1.4c1-8.32-.42-16.4-2.16-24.49s-4.79-15.86-7.71-23.63a66.92 66.92 0 0 1-4.37-16A48.51 48.51 0 0 1 42 408c.46-10.58 1-21.15 1.27-31.73A102.49 102.49 0 0 0 42 355.64c-.68-3.76-1.07-7.56-1.93-11.28.16-.62.69-.77 1.19-.95 2.45-.87 4.79-2 7.16-3.08 2.05-.95 2.29-1.57 1.28-3.81a40 40 0 0 1 7-2.73c5.65-1.56 11.15-3.66 16.85-5a5.05 5.05 0 0 1 2.56-.39Z"/><path fill="#fffefd" d="M44.72 206.46a55.29 55.29 0 0 0-8.24-17.05c-.6-.88-1.24-1.74-2-2.79 9-4.06 12.34-12.34 15.44-21.25 2.11 6 5.15 11 7.35 16.43a5.76 5.76 0 0 1 .65 1.88c-1 2.88-2.08 5.76-3.1 8.65-1.66 4.69-4.68 8.52-7.8 12.28a5.56 5.56 0 0 1-2.3 1.85Z"/><path fill="#000101" d="M10.72 334.69c.6-3.16 1.14-6.32 1.8-9.46 1.82-8.71 3.95-17.35 6.18-26a13 13 0 0 1 .59-1.69.86.86 0 0 1 1-.45.82.82 0 0 1 .71.91 7.75 7.75 0 0 1-.35 2.38c-2.39 9.47-4.72 18.95-6.73 28.51-.41 2-.73 3.94-1.09 5.92a5.59 5.59 0 0 1-.11.59c-.15.53-.36 1.09-1 1s-.9-.67-.89-1.31v-.4Z"/><path fill="#000202" d="M74.32 302.22c-.07-.89 0-1.46.62-1.63s1 .23 1.22.77a17.2 17.2 0 0 1 .58 1.71c1.83 6.69 3.89 13.32 6 19.93a14.1 14.1 0 0 1 .48 1.94.89.89 0 0 1-.66 1.09.94.94 0 0 1-1.14-.59 6 6 0 0 1-.26-.75c-2.22-6.92-4.6-13.8-6.43-20.84-.19-.65-.33-1.3-.41-1.63Z"/><path fill="#010505" d="M84.05 243.54v-9.21c0-.77-.22-1.83.94-1.86s1 1 1 1.79c0 6.27.56 12.54.19 18.82 0 .39 0 .8-.1 1.19a.91.91 0 0 1-.91.89 1 1 0 0 1-1-.82 6.49 6.49 0 0 1-.13-1.59v-9.21Z"/><path fill="#000202" d="M20.77 333.14q.26-5.7.53-11.4a7.6 7.6 0 0 1 .18-1.59c.13-.54.44-1 1.12-.91s.75.5.79 1a5.3 5.3 0 0 1 0 .8q-.48 9.79-1 19.6a1.34 1.34 0 0 1 0 .2c-.12.74-.22 1.6-1.22 1.49s-.81-.92-.78-1.59q.18-3.8.38-7.6Z"/><path fill="#010505" d="M46.72 326.33v8c0 .53 0 1.07-.06 1.6s-.36 1.05-1 1-.89-.51-.94-1.09v-1c0-4.95 0-9.9.05-14.84 0-1.14.14-2.27.24-3.4.06-.59.37-1 1-1s.9.52 1 1.09a8.36 8.36 0 0 1 0 1v8.62ZM44.92 217.88c.35-1.75.66-3.46 1-5.15a1 1 0 1 1 1.87.35 23.31 23.31 0 0 1-1 5.1c-.19.54-.48 1-1.14.91s-.65-.72-.73-1.21Z"/><path fill="#fffefd" d="M159.56 403.31c0-10.28-.21-19.53-.51-28.77a38.23 38.23 0 0 1 .5-8.61 10.35 10.35 0 0 1 3-5.54c.44-.42.93-.78 1.34-1.22a7.38 7.38 0 0 1 6.94-2.58c3.53.51 7.09-.23 10.57-.9a61 61 0 0 1 18-.4c9.86 1 19.7 2.28 29.65 1.73a102 102 0 0 0 22.25-4.16c4.24-1.21 8.46-2.5 12.7-3.73a3.07 3.07 0 0 1 2.48.09c7.91 4.07 15.89 8 23.66 12.34 2.52 1.4 5 2.92 7.45 4.36a2.08 2.08 0 0 1 1.1 1.52 26.06 26.06 0 0 1 .72 6.57c-.11 3.48.25 7-.23 10.44a26.11 26.11 0 0 1-10 17.48c-3.52 2.8-7.65 4-12 4.6-5.25.71-10.44.14-15.62-.52a272.83 272.83 0 0 1-30-5.52 188.91 188.91 0 0 1-23.07-6.81 82.45 82.45 0 0 1-9.68-4.38l-.72-.35c-1.35-.62-2.2-.51-2.62.34s-.06 1.74 1.28 2.31a2.33 2.33 0 0 1 1.51 2.49c.11 6.63.13 13.27.43 19.89.48 11 .47 22 .85 32.95.24 7 .84 13.91.76 20.88-.06 6.16 0 12.33 0 18.49 0 3.38-.24 3.63-3.5 3.37a75.38 75.38 0 0 1-29.5-8.44 7.69 7.69 0 0 1-4.37-6.52c-.8-9.61-1.63-19.22-2.07-28.86-.3-6.29-.89-12.56-1.1-18.85-.33-8.24-.15-16.49-.2-23.69Z"/><path fill="#fff" d="M376.79 458.35c-.7 6.07-1.15 11.94-2.29 17.73a14.76 14.76 0 0 0-.19 3.81c.07.87-.15 1.22-1.09 1.46-4.87 1.22-9.86 1.87-14.72 3.13-7.92 2.08-16 3-24.07 4.39-7.38 1.3-14.72 2.8-22.08 4.23-3.62.71-7.3.93-11 1.31-4.59.47-9.18 1.07-13.78 1.37a167.5 167.5 0 0 1-23.28-.31c-5.66-.43-9.61-3.3-12.34-8.12a57.1 57.1 0 0 1-5.11-13.68c-1.87-7-2.62-14.2-3.63-21.36-1.36-9.67-2.13-19.43-4-29a106.54 106.54 0 0 0-2.46-10.75c-.77-2.57-1.3-5.19-1.88-7.78.37-.38.77-.24 1.15-.15a262 262 0 0 0 26.69 4.6c6.06.74 12.14 1.08 18.18-.28 1.48-.33 2.94-.8 4.54-1.24a81.26 81.26 0 0 1-.15 9.13c-1.15 12.8-2.38 25.59-4.52 38.28-.84 5-1.36 10.08-2.36 15.07a2.7 2.7 0 0 0-.09.79 1.48 1.48 0 0 0 1.18 1.44 1.3 1.3 0 0 0 1.6-.9 22.44 22.44 0 0 0 .65-2.72c.25-1.31.51-2.63.67-4 .12-1 .64-1.4 1.62-1.66a135.47 135.47 0 0 1 14.38-2.74 282.17 282.17 0 0 1 30.19-2.6c11.33-.43 22.63.23 33.95.16 4.28 0 8.58-.07 12.85.31Z"/><path fill="#fffefd" d="M269 314.41a2.37 2.37 0 0 0-3.34.63c-1.49 1.81-3.13 3.48-4.71 5.22a2.41 2.41 0 0 0-.71 2.74c.37.8 0 1.08-.6 1.37-6.38 3.24-12.65 6.7-19.51 8.86a2.12 2.12 0 0 1-.53 0c.15-2.69.65-5.31 1-7.95 2.08-14.78 5.07-29.4 8-44a55.64 55.64 0 0 1 2.88-10.83 29.69 29.69 0 0 1 3.02-5.45c2.14-3.07 4.32-6.12 6.4-9.24a28.56 28.56 0 0 0 3.65-9.71c.19-.85.28-1.72.45-2.57.31-1.6.66-1.88 2.28-1.85a13.76 13.76 0 0 1 5.75 1.6 28 28 0 0 1 5.36 3.51c2.48 2 3.61 1.88 5.83-.45s4.38-5.24 6.55-7.88a83.59 83.59 0 0 1 5.77-6.42c.76-.75 1.27-.94 2.16-.23a49.33 49.33 0 0 1 13.76 16 65.22 65.22 0 0 1 6 14.85 69.05 69.05 0 0 1 1.36 21.39c-.92 11.35-3.94 22.24-7 33.13-4.19 14.87-9.23 29.48-13.67 44.27-.15.5-.37 1-.6 1.61a312.33 312.33 0 0 0-29.1-15.32c3.74-1.47 7.32-2.86 10.88-4.31.7-.29 1 .15 1.36.47 1.61 1.42 3.16 2.9 4.77 4.31 2.21 1.94 3.11 1.95 5.38 0 1.64-1.38 3.22-2.83 4.83-4.24s1.8-2.08.36-4a3.21 3.21 0 0 1 .52-2.31c3-5.37 4.62-11.26 6.74-17 3.49-9.41 7.66-18.57 10.55-28.21 1.91-6.38 3.4-12.85 3-19.55-.36-6.5-1.23-12.91-4.64-18.72-4-6.87-10.63-8.47-17.43-4.28-7.45 4.59-12.05 11.44-15.67 19.12-2.66 5.62-3.74 11.71-4.91 17.76-1.56 8-2.93 16.07-4.69 24-.26 1.33-.34 2.74-1.5 3.68Z"/><path fill="#21b5bc" d="M269 314.41c1.6-5.54 2.43-11.24 3.59-16.87 1.65-8.06 2.66-16.26 5.21-24.11a50.68 50.68 0 0 1 11.2-18.87 27.3 27.3 0 0 1 8.75-6.29c6-2.76 12-.84 15.48 4.76 3 4.73 4.11 10 4.82 15.38 1.08 8.14-.23 16-2.58 23.77-2.59 8.53-6.12 16.7-9.29 25-1.49 3.94-3 7.89-4.34 11.88a103.36 103.36 0 0 1-4.84 10.83c-3.52-3.37-7-6.76-10.56-10.11q-8.23-7.8-17.06-14.93a2.67 2.67 0 0 1-.38-.44Z"/><path fill="#fffefd" d="M265 237.77c-.26-1.42-.54-2.77-.74-4.13a98.66 98.66 0 0 1-1.26-13.18 21.51 21.51 0 0 0-.32-3 8.5 8.5 0 0 0-5.86-7.23 23 23 0 0 1-4.71-2.21c-1.42-.93-1.52-1.32-.74-2.77a4.71 4.71 0 0 0 .8-1.6c.13-2.12 1.54-2.43 3.22-2.5a5.18 5.18 0 0 0 2.67-.78 2.4 2.4 0 0 0 .79-3.63 13.29 13.29 0 0 0-1.79-1.89 11.82 11.82 0 0 1-3.46-5.32c-.46-1.6-.31-2.09 1-3.11a15.33 15.33 0 0 1 1.64-1.17 16.81 16.81 0 0 0 6.57-6.88c.42-.82.93-.88 1.75-.83 3.83.24 5.61 2 5.71 5.79 0 1.46.36 2.09 1.08 2 1.09-.2.95-1.12 1-1.91a7.17 7.17 0 0 0-6.53-7.74 1.28 1.28 0 0 1-1-.37c1.35-2.61 3-4.92 5.83-6.26.59-.28 1.06-.42 1.62.11a41.68 41.68 0 0 1 3.07 2.88 10.31 10.31 0 0 1 2.63 8.54 16.29 16.29 0 0 0 .2 6.95c.43 1.55-.19 3.05-.81 4.47a8 8 0 0 0-.78 3.49c.07 1.84 1.06 2.65 2.87 2.43a7.36 7.36 0 0 0 4.22-2.14 17.54 17.54 0 0 1 3.08-2.24c1.92-1.16 3.45-.68 4.09 1.47 1.48 4.9-.7 8.65-6.07 9.66-.45.08-.95 0-1.39.13a1.43 1.43 0 0 0 0 2.78 6.3 6.3 0 0 0 3.17-.19c.63-.14.85 0 1 .61a27.7 27.7 0 0 0 2 6.91c.32.62-.18.84-.53 1.11-1.38 1.07-2.76 2.13-4.16 3.16a98.77 98.77 0 0 0-19.34 18.31 2.44 2.44 0 0 1-.52.28ZM221.93 339c1.92-12.75 3.53-25.29 6-37.69 3-15 5.82-30.08 10.12-44.79A81.71 81.71 0 0 1 242 245a22.68 22.68 0 0 1 2.4-4.17 9.68 9.68 0 0 1 3-2.58c.4-.22.75-.27 1 .2 2.8 5.32 5.38 10.69 4.28 17-.35 2-.8 4.07-1.14 6.11a21.43 21.43 0 0 1-2.09 6.22 44.33 44.33 0 0 0-3.62 12.06c-1.39 7.43-3 14.82-4.4 22.24-2 10.52-3.75 21.08-5 31.71a1.27 1.27 0 0 1-1 1.25 104.13 104.13 0 0 1-13.5 3.96Z"/><path fill="#fffefd" d="M169.66 352.27a17 17 0 0 0 9.31-5.92c.17-.21.36-.4.54-.6 2.13-2.36 4.52-3.49 7.84-2.45a54.63 54.63 0 0 0 11.86 2 47.28 47.28 0 0 0 16.9-1.4c9.46-2.65 18.9-5.29 28.08-8.84 5.82-2.26 11.29-5.19 16.83-8 1.55-.78 1.5-.79 2.63.36 4.28 4.33 8.88 8.33 13.38 12.43a4.43 4.43 0 0 1 1.35 1.4c-2.57.93-5 1.95-7.53 2.71-8.83 2.68-17.64 5.39-26.58 7.66A87.35 87.35 0 0 1 218 354c-5.35-.29-10.67-.91-16-1.54a77.78 77.78 0 0 0-24.17.68 25.34 25.34 0 0 1-11.36-.18c.83-1.27 2.22-.07 3.19-.69ZM222.51 313.88c-.34 2.35-.72 5.07-1.1 7.79a1 1 0 0 1-1.07 1 5.54 5.54 0 0 1-3.09-.69 17 17 0 0 1-4.36-3.51 51.83 51.83 0 0 1-5.08-6.47q-3.81-5.79-7.53-11.63a77.38 77.38 0 0 1-5.71-11.27 120 120 0 0 0-7.2-14.78A30 30 0 0 0 175.7 263a33.19 33.19 0 0 1-6-4 9.45 9.45 0 0 1-3-4.2 5.59 5.59 0 0 1-.14-3.16c.14-.56.32-1.27 1-1.38s.83.59 1.14 1c1.11 1.42 2.16 2.89 3.27 4.33a16.65 16.65 0 0 0 3.1 3.12c2.67 2 5.11 1.73 7.84.09a3.76 3.76 0 0 0 1.66-3.07 10.29 10.29 0 0 0-1.16-5.42 68 68 0 0 0-7.56-13c-1-1.29-1.06-4.91-.16-6.25.44-.66.94-.66 1.37.05a4.92 4.92 0 0 1 .58 2.31 10.81 10.81 0 0 0 3 6.65c.94 1 1.91 2.07 2.87 3.09a12.83 12.83 0 0 1 3.57 7 18.63 18.63 0 0 0 2.79 7.26 189.7 189.7 0 0 0 14.77 21.26A104.46 104.46 0 0 0 215 289a9.94 9.94 0 0 1 3.05 5c1.07 3.94 2.49 7.77 3.25 11.79a71 71 0 0 1 1.21 8.09Z"/><path fill="#fff" d="M393 459.82a27.42 27.42 0 0 1-1.17 7.15c-.66 2.32-1.35 4.62-1.78 7a23.59 23.59 0 0 0 .94 11.09 16.1 16.1 0 0 1-.59 11.37 15.21 15.21 0 0 1-7.52 7.74 7.3 7.3 0 0 1-2.51.67 2.69 2.69 0 0 1-2.66-1.05c-.71-1-.56-1.46.62-1.89a19.47 19.47 0 0 0 2.25-.82 5.19 5.19 0 0 0 2.75-6.22 15.28 15.28 0 0 0-2-3.9c-3-5-4.91-10.16-3.55-16.18a114.32 114.32 0 0 0 1.74-13.72 14.26 14.26 0 0 1 1.37-5.17c2.07-4 7.4-4.68 9.93-2.45a6.31 6.31 0 0 1 1.95 3.84 22 22 0 0 1 .23 2.54ZM200.31 492.65a7.32 7.32 0 0 1-5.7 6.05 15.63 15.63 0 0 1-5.79-.27 66.75 66.75 0 0 0-17.4-.74c-3.42.32-6.82-.24-10.23-.38a71.54 71.54 0 0 1-15.9-1.95c-2-.53-4-1.16-5.95-1.78a7.61 7.61 0 0 1-1.65-.73c-1.9-1.16-1.95-3.08-.15-4.39a9.32 9.32 0 0 1 5.33-1.47c1.34-.05 2.68 0 4 0a56.93 56.93 0 0 0 12.35-1.29 14.93 14.93 0 0 0 4.69-1.71 1.93 1.93 0 0 1 2.19 0 74.6 74.6 0 0 0 21.29 7.45 59.86 59.86 0 0 0 12.92 1.21Z"/><path fill="#fffefd" d="M142.26 236.18a14.77 14.77 0 0 1 2.91-5.42 23.33 23.33 0 0 0 17.89 4.1c4.71-.84 8.11.67 10.78 4.64a86.79 86.79 0 0 1 6.93 12.18 11 11 0 0 1 .81 2.68c.25 1.43-.24 2.07-1.65 2.49a3.41 3.41 0 0 1-3.49-.93 35.13 35.13 0 0 1-4.52-5.37c-.59-.8-1.18-1.62-1.85-2.36a4.24 4.24 0 0 0-4-1.44c-4.19.59-7.62-1.2-10.57-3.83a19.47 19.47 0 0 0-5.84-3.76c-2.45-.97-4.92-1.98-7.4-2.98ZM268.17 238.76a6.72 6.72 0 0 1 1.41-1.83 109.38 109.38 0 0 1 17.09-15.44c1.71-1.28 3.38-2.62 5.12-3.87 1.15-.83 1.71-.56 1.68.87a33.11 33.11 0 0 0 1.51 9.27 1.89 1.89 0 0 1-.58 2.13c-3.41 3.14-6.16 6.87-9.08 10.44-.3.36-.57.74-.88 1.09-1 1.1-1.78 2.67-3 3.16-1.45.57-2.36-1.33-3.56-2.05a25.61 25.61 0 0 0-9.71-3.77ZM294.49 341.77c-1.62 1.45-3.05 2.66-4.41 4a1.14 1.14 0 0 1-1.86 0c-4.73-4.54-9.94-8.55-14.66-13.11-3.13-3-6.57-5.7-9.4-9-1.26-1.5-1.25-1.18 0-2.73 1-1.22 2.11-2.39 3.24-3.65a346.08 346.08 0 0 1 27.09 24.49ZM255.67 256.49c1.05-6-.46-11.54-3.2-16.84-.74-1.42-1.46-2.86-2.07-4.34-.8-2-.46-3 1.32-4.05a34.84 34.84 0 0 0 7-5.93 2.72 2.72 0 0 1 1.18-1 9.3 9.3 0 0 1 .34 2.66c.55 3.64 1 7.3 1.55 10.94.81 5-.47 9.7-2.48 14.22a28.75 28.75 0 0 1-3.3 5.5c-.93-.09-.36-.71-.34-1.16ZM232.43 265.41c-1.66 7.64-3.36 15.28-5 22.94-.95 4.51-1.8 9-2.68 13.59a5.23 5.23 0 0 1-.62 2.11c-1.38-5.13-3.06-10.13-4.83-15.11a2.14 2.14 0 0 1 .29-1.87c1.65-3.36 3.54-6.6 5.38-9.86 2.37-4.19 4.7-8.4 7-12.61.82-.03.62.4.46.81Z"/><path fill="#20b3ba" d="M276.55 152.89a7.59 7.59 0 0 1 5.07 2.34 17.76 17.76 0 0 1 2.71 3.46c2.18 3.52 5.51 5.11 9.42 5.72a5 5 0 0 1 2.44.77 1 1 0 0 1 .43 1 .91.91 0 0 1-1.06.72c-4.74-.77-9.35-1.79-12.3-6.15-.79-1.16-1.58-2.32-2.44-3.42a6 6 0 0 0-4.36-2.54c-.72-.05-1.39-.15-1.37-1.06.01-.53.64-.85 1.46-.84Z"/><path fill="#21b3ba" d="M316 188.1a15.66 15.66 0 0 1-.34 3.5c-.11.59-.41 1-1.05 1s-1-.58-1-1.25a13.22 13.22 0 0 1 .06-1.4c.78-7.2-1.91-12.91-7.42-17.43-.58-.48-1.55-.83-.95-1.86.35-.61 1.18-.48 2.27.4 5.43 4.36 8.51 9.88 8.43 17.04Z"/><path fill="#20aeb5" d="M314 197.48a11.8 11.8 0 0 1-2.61 5 1 1 0 0 1-1.51-1.21 16 16 0 0 0 2.33-4.59c.17-.55.57-1 1.19-.79s.75.78.6 1.59Z"/><path fill="#dbd4d3" d="M169.66 352.27c-.47.54-1.11.32-1.69.38s-1.08-.16-1.49.34a4.7 4.7 0 0 1-2-.44c.11-.77.61-.45 1-.37Z"/><path fill="#8cdee1" d="M142.39 239.53c-.11.57-.2 1.41-.93 1.11-.56-.23-.4-1 .14-1.46a1.09 1.09 0 0 1 .79.35Z"/><path fill="#b5cac9" d="M165.45 352.18c-.36.07-.75.05-1 .37l-1.16-.39c-.07-.37 0-.56.43-.42a3.67 3.67 0 0 1 1.73.44Z"/><path fill="#9d9090" d="M255.67 256.49c.24.36-.13.92.39 1.19-.06.31-.19.65-.55.64s-.24-.38-.22-.59a1.75 1.75 0 0 1 .38-1.24Z"/><path fill="#b1b7b7" d="M232.43 265.41c-.16-.26-.07-.63-.39-.81l.36-.83c.38-.1.56 0 .47.43a2 2 0 0 1-.44 1.21Z"/><path fill="#4f5757" d="M232.87 264.2c-.1-.2-.18-.43-.47-.43.06-.36.39-.75.61-.59.4.27.13.7-.14 1.02Z"/><path fill="#727f7f" d="m163.7 351.74-.43.42c-.33-.06-.8-.31-.68-.52.32-.5.75-.16 1.11.1Z"/><path fill="#fffefd" d="M94.16 119.24a27.21 27.21 0 0 0-4 8.27 26.39 26.39 0 0 0 .5 13.69c.69 2.44 1.62 4.81 2.45 7.21A33.64 33.64 0 0 1 95 160.64c-.14 3.88-.25 7.76-.57 11.64a215.26 215.26 0 0 0-.19 28.51 79.67 79.67 0 0 1-.11 13.64 16.42 16.42 0 0 1-2.32 6.57c-2.15 3.61-8.33 4.35-11.54 1.53a17.11 17.11 0 0 1-3.16-3.88 103.32 103.32 0 0 1-7.5-14.85c-3.22-7.71-6.23-15.51-9.57-23.18-1.33-3.06-2.71-6.11-4.25-9.08A38 38 0 0 1 52 160.36a3.1 3.1 0 0 1 .08-1.57c1.31-4.21 2.57-8.44 3.92-12.64a21.74 21.74 0 0 1 1.61-3.67 4.24 4.24 0 0 1 6.29-1.68 9 9 0 0 1 3.27 3.46 75.66 75.66 0 0 1 8.38 22c1.55 7.54 2.64 15.16 4.37 22.66a84.88 84.88 0 0 0 3.75 11.22 5.3 5.3 0 0 0 .35.72 1.43 1.43 0 0 0 1.83.8 1.53 1.53 0 0 0 .85-2 2.07 2.07 0 0 0-.23-.56c-1.83-3.14-1.43-6.5-1-9.9.6-5.18 1.6-10.32 2-15.53.23-3.14.45-6.28.72-9.41.47-5.5-1.35-10.22-4.56-14.6a108.53 108.53 0 0 0-8.87-10.88 17.58 17.58 0 0 1-3.6-4.78c.35-.72.72-1.41 1.66-1.43.56.57 1.11 1.15 1.68 1.71a10.35 10.35 0 0 0 3.87 2.44c2.94 1 5.1.24 6.65-2.42a27 27 0 0 0 2.27-5.77 43 43 0 0 1 5.52-10.84 1.74 1.74 0 0 1 1.35 1.55ZM132.4 220.78c.24.65-.14 1.15-.38 1.68a62.08 62.08 0 0 0-3 8 170.74 170.74 0 0 1-24.3-13.54c-2.1-1.42-4.27-2.74-6.42-4.09a1.62 1.62 0 0 1-.94-1.59c.19-5.75-.16-11.5-.46-17.24-.06-1.18 0-2.37 0-4 11.44 11.12 23.44 21 35.5 30.78ZM93.35 96.88l1.07.52c2.11 1 2.42 1.69 1.55 3.89a11.94 11.94 0 0 0-.71 4.92 24.12 24.12 0 0 1 0 3.4 2.67 2.67 0 0 1-2.91 2.67 3.47 3.47 0 0 0-3.14 1.42 2.9 2.9 0 0 1-2.93 1.3c-.53 0-1.07-.07-1.6-.07-2.19 0-3.16 1.21-2.72 3.38.18.85.5 1.66.75 2.48-.29.41-.73.25-1.1.29a2.34 2.34 0 0 0-2.23 2c-.2 1.2-.93 1.5-1.95 1.58l-4.94.39c.6-1.91 1.25-3.69 1.71-5.51.55-2.2 1-4.44 1.4-6.67a40.26 40.26 0 0 1 1.58-5.58c1.73-4.89 5.21-8 9.88-9.87a28.27 28.27 0 0 1 5.32-1.73c1.15-.28.35 1.01.97 1.19Z"/><path fill="#21b5bc" d="M82.41 185.78c-.93-3.21-1.3-6.52-1.93-9.79-1.41-7.38-2.49-14.84-5.3-21.88a1.33 1.33 0 0 1 0-.4 1.57 1.57 0 0 1 1.32-1c2.62 3.27 5.24 6.56 7.88 9.82a3.36 3.36 0 0 1 .8 2.58 195.92 195.92 0 0 1-2.36 20.65c-.14.18-.27.24-.41.02Z"/><path fill="#21b4bb" d="M29.61 128.8a19.06 19.06 0 0 1 6.49-14.52 82.6 82.6 0 0 1 7.88-6.2 17.88 17.88 0 0 0 5.58-5.67 3.35 3.35 0 0 1 .48-.64 1 1 0 0 1 1.26-.26 1 1 0 0 1 .44 1.38 12.13 12.13 0 0 1-.9 1.56 19.94 19.94 0 0 1-5.28 5.16 84.09 84.09 0 0 0-8.47 6.72 17.52 17.52 0 0 0-5.54 11.88 18.9 18.9 0 0 0 .18 2.59c0 .59-.13 1.09-.81 1.15a1 1 0 0 1-1.11-.93c-.12-.85-.16-1.72-.2-2.22Z"/><path fill="#a8edf0" d="M72.21 128.14c2-.24 3.91-.41 5.81-.61s3.25-.84 3.92-2.61a1.21 1.21 0 0 1 1.17-.88c2.06-.18 3.16-1.86 2.46-4.34a4.28 4.28 0 0 1-.41-1.79h3.63c.1.72-.41 1.23-.73 1.79A38.11 38.11 0 0 0 84 129a14.64 14.64 0 0 1-1.41 3.52c-.94 1.64-1.72 1.94-3.47 1.26a7.19 7.19 0 0 1-2.2-1.37c-1.57-1.41-2.76-3.19-4.71-4.27Z"/><path fill="#fdfcfb" d="M76.48 152.7a2.65 2.65 0 0 1-1.32 1 12.09 12.09 0 0 1-1.52-3.23c-.93-2.15-1.91-4.27-3-6.33-1.9-3.56-4.33-6.46-9-7l5.61-5.22c1.51 2.79 2.72 5.63 5 7.76a1.17 1.17 0 0 1 .45 1.06c-.5 4.54 1.3 8.36 3.78 11.96Z"/><path fill="#20b2b9" d="M30.33 180.15a3.57 3.57 0 0 1-1.59-.17.94.94 0 0 1-.6-.94.83.83 0 0 1 .74-.83 13 13 0 0 1 1.4-.06 7.49 7.49 0 0 0 6.29-3.36c.66-.93 1.25-1.9 1.87-2.86.21-.33.38-.7.62-1a1 1 0 0 1 1.41-.3 1 1 0 0 1 .42 1.22c-1.03 4.22-6.11 8.23-10.56 8.3Z"/><path fill="#20b1b7" d="M56 93a.8.8 0 0 1-.87-.88 3.6 3.6 0 0 1 .25-1.16A14.62 14.62 0 0 1 60 84.5a5 5 0 0 1 1.18-.74.9.9 0 0 1 1.21.38 1 1 0 0 1-.1 1.12 1.23 1.23 0 0 1-.27.29 14 14 0 0 0-5 6.61c-.29.66-.6.84-1.02.84Z"/><path fill="#20b2b8" d="M98.08 79.81c0 .58-.1.92-.52 1.13a.79.79 0 0 1-.93-.1 6.08 6.08 0 0 1-.77-.91c-1.59-2.1-3.23-4.12-6-4.84-.61-.16-1.15-.56-.9-1.31s.8-.68 1.35-.57a5.64 5.64 0 0 1 1.35.38 14.5 14.5 0 0 1 6.13 5.61 2.49 2.49 0 0 1 .29.61Z"/><path fill="#a2e6e9" d="M82.77 155.66a45.91 45.91 0 0 1-6-8 5.11 5.11 0 0 1-.83-2 1.34 1.34 0 0 1 .08-1.43 81.14 81.14 0 0 1 7.22 10.6c.25.46.28.86-.47.83Z"/><path fill="#f6f7f6" d="M93.35 96.88c-.6-.19-.38-1-1-1.23a63.2 63.2 0 0 0 6.77-3.42c.66 2.12-.31 3.58-1.13 5.29a7.71 7.71 0 0 0-3-2c-1.2-.3-1.4-.16-1.64 1.36Z"/><path fill="#1da4aa" d="M44.28 161.3a11.93 11.93 0 0 1 .53-1.44.8.8 0 0 1 1-.46 1 1 0 0 1 .75.85 4.35 4.35 0 0 1-.37 1.74c-.17.67-.61 1.08-1.33.88s-.68-.74-.58-1.57Z"/><path fill="#27aeb4" d="M94.16 119.24a4.69 4.69 0 0 1-1.35-1.52 3.92 3.92 0 0 1 1.62-1.88.63.63 0 0 1 1 .63 4.79 4.79 0 0 1-1.27 2.77Z"/><path fill="#25b1b8" d="M72.82 132.6c-.64.37-.79 1.32-1.66 1.42-.64-.86-1.47-2-.5-2.76.66-.51 1.57.61 2.16 1.34Z"/><path fill="#7fb6b9" d="M82.77 155.66c.43-.15.42-.54.49-.89a3.45 3.45 0 0 1 .82 1.6c.12.44-.07.56-.48.47a2.92 2.92 0 0 1-.83-1.18Z"/><path fill="#6ea2a4" d="M76 144.17v1.43a1.49 1.49 0 0 1-.34-1.63c.11-.37.34-.07.34.2Z"/><path fill="#5f8384" d="M83.6 156.84c.27 0 .39-.25.48-.47a.61.61 0 0 1 .13.15c.19.32.51.74 0 .95-.21.12-.49-.31-.61-.63Z"/><path fill="#1a878d" d="M82.41 185.78h.39a1 1 0 0 1-.16.92.92.92 0 0 1-.23-.92Z"/><path fill="#fafbfb" d="M22.09 231.58C25 226 29 221.51 35 219.15c.12.08.15.17.12.25s-.08.13-.12.13a84.42 84.42 0 0 1-12.4 12.55c-.4.07-.6-.08-.51-.5Z"/><path fill="#eff1f1" d="M20.22 216.28c4.36-2.1 8.94-1.71 13.52-1.42a36 36 0 0 1-13.52 1.42Z"/><path fill="#a7a1a1" d="m22.09 231.58.51.5c-.18.32-.43.78-.81.46s-.03-.7.3-.96Z"/><path fill="#636262" d="M34.66 225.23c0-.2 0-.39-.07-.58s.16-.26.24-.16c.26.3.05.51-.17.74Z"/><path fill="#676d6d" d="M35 219.53a.5.5 0 0 1 0-.38c0-.21.19-.4.33-.16s-.05.47-.33.54Z"/><path fill="#020101" d="M256.78 27.26a10.74 10.74 0 0 0-2-.28 10.7 10.7 0 0 1-5.23-1.78 12.07 12.07 0 0 1-1.55-1.74c-.94-.95-1.87-.66-2.18.63-.08.32-.06.66-.12 1a17.48 17.48 0 0 1-1.29 4.81 4.68 4.68 0 0 1-1 2.14c-2.24 1.32-2.49 2.13-1.12 3.64a9.34 9.34 0 0 0 2.36.26 1.08 1.08 0 0 0 .55-.15l1.31-1.89c-.13-.54-.74-.75-.86-1.3l.94-2c.3-1.29.6-2.59 1-4.17a13.62 13.62 0 0 0 6.78 2.72 11 11 0 0 0-2.55 7l-2.62-1.58c-.78.44-1.56.89-1.06 2a7.8 7.8 0 0 1 3.34 2.76c.81 1 1.85.74 2.19-.52a6.9 6.9 0 0 0 .19-1.58c.14-3 .82-5.82 3.37-7.81a1.5 1.5 0 0 0 .27-.29c.5-.86.27-1.59-.72-1.87Z"/><path fill="#f7fbf9" d="M240.32 151.17a9.1 9.1 0 0 1-.58 2.1c-.44 1.53.15 2.14 1.74 1.84.32-.07.64-.19 1-.28.35.29.32.69.36 1.09.07.7-.26 1-.93.87a13.26 13.26 0 0 0-5.56.48c.39-2.3 1.19-4.4.9-6.73Z"/><path fill="#f2f6f5" d="M242.88 148.72c-.08-.65-.16-1.3-.27-2.13a18.57 18.57 0 0 0 6.41.3c-.13 1.74-.59 3.34-.29 5a14.48 14.48 0 0 1-3 0c.4-.76.83-1.49 1.18-2.27.5-1.11 0-1.88-1.18-1.72a19.27 19.27 0 0 0-2.85.82Z"/><path fill="#d1ece9" d="M243 152.52c-.43 0-.74-.07-.62-.6l.24-1.08c.88-.14 1.3.07.78 1-.18.24-.32.46-.4.68Z"/><path fill="#f6fbfa" d="M139.61 110.12c-.16.36-.31.74-.49 1.09a1.25 1.25 0 0 0 .42 1.88c.41.53 1 .27 1.48.27a1.19 1.19 0 0 1 1.13 1.83.53.53 0 0 1-.63.34c-.86-.16-1.71-.31-2.57-.42s-1.56.4-2.54.12c.32-1.85 1-3.66.76-5.68a5.33 5.33 0 0 1 2.44.57Z"/><path fill="#e9f0ee" d="M147.91 106.89c.21 0 .4.22.31.4a16.87 16.87 0 0 0-1.07 4.78l-2-.7c.42-.65.82-1.31 1.26-2a1.46 1.46 0 0 0-.06-2.09.37.37 0 0 1 .07-.51 2.86 2.86 0 0 1 1.49.12Z"/><path fill="#e5efee" d="M146.36 107v.36a7.76 7.76 0 0 0-2.14.38c-1.31.27-1.43.15-1.5-1.2a5.93 5.93 0 0 0-.07-.59c1.21-.19 2.19.7 3.35.7a.72.72 0 0 1 .36.35Z"/><path fill="#e1e8e7" d="M142.79 111.08c-.46-.17-1.56.21-.86-1 .4.06.89-.39 1.18.16.17.34-.11.59-.32.84Z"/><path fill="#39c4bc" d="m146.36 107-.36-.35a3.14 3.14 0 0 1 1.91.27Z"/><path fill="#fdfdfc" d="m134.48 232.92-3.48-1.45a45.75 45.75 0 0 1 3-8.17 1.15 1.15 0 0 1 .69-.66l3.19 2.44c0 .86-.55 1.48-.86 2.2-.82 1.89-1.69 3.72-2.54 5.64Z"/><path fill="#7dd1d5" d="M137.06 220.48c-.4-.21-.79-.43-1.18-.65a1.7 1.7 0 0 1 1.18-1.37Z"/><path fill="#56cacf" d="M130.31 234.39a.51.51 0 0 1 .35.13 1.23 1.23 0 0 1 0 .19c-.07.33-.3.8-.57.61s-.09-.68.22-.93Z"/><path fill="#fbfcfb" d="M193.53 89.45c-.87-2.94-2.24-4-5.43-4.23 1.12-2.14 3-2.94 4.86-2.12a3.75 3.75 0 0 1 2.04 4.62 2.39 2.39 0 0 1-1.47 1.73Z"/><path fill="#e9eeed" d="M190.24 92.39a2.48 2.48 0 0 1-3.29 0 2.34 2.34 0 0 1-.84-3.14 8.92 8.92 0 0 0 4.13 3.14Z"/><path fill="#e0edec" d="M189.66 87.59c1.15.6 1.92 1.42 1.65 2.84a4.87 4.87 0 0 1-2.72-1.49c-.23-.32-.57-.67-.39-1.07s.68-.27 1.07-.26a2.55 2.55 0 0 0 .39-.02Z"/><path fill="#fbfcfb" d="M283.87 116.43c1.49-1.37 3.14-1.47 4.4-.27a3.21 3.21 0 0 1 .33 4.21c-1.06 1.37-2.64 1.52-4.43.42a6.3 6.3 0 0 0-.3-4.36Z"/><path fill="#27b1b8" d="M283.87 116.43c1.58 1.59 1.63 2.31.3 4.36-1.52-1.72-1.58-2.67-.3-4.36Z"/><path fill="#fcfdfc" d="m140.11 235.31-3.48-1.38a22.59 22.59 0 0 1 3.32-7.16l3.11 2.43c-.98 2.03-1.97 4.07-2.95 6.11Z"/><path fill="#80dfe4" d="M146.63 228c.12 0 .1-.39.34-.15l-.24.24Z"/><path fill="#48c2c8" d="m135.93 236.81.37.16c-.07.37-.2.94-.61.74s-.12-.66.24-.9Z"/><path fill="#5aced4" d="M141.49 224.07a2 2 0 0 0-.35 0c.13-.28.23-.76.6-.56s-.06.4-.25.56Z"/><path fill="#f9faf9" d="M215.12 250.94a5.49 5.49 0 0 0-5.53-1.42c-.07-2.14.88-3.56 2.58-3.83a3 3 0 0 1 3.25 1.42 3 3 0 0 1-.3 3.83Z"/><path fill="#e0f1f1" d="M212 254.2c.35.39.92.09 1.28.42-.68 1.14-1.38 1.44-2.47 1.09s-1.46-1.07-1.29-2.41a6.34 6.34 0 0 0 2.48.9Z"/><path fill="#bcb8b8" d="M212.5 251.69a.52.52 0 0 1 .54.38c-.6.09-1.21.19-1.68-.35a1.07 1.07 0 0 1 1.14-.03Z"/><path fill="#acefef" d="M212.5 251.69h-1.14a.42.42 0 0 1-.35-.15 1 1 0 0 1 1.49.15Z"/><path fill="#ecf0ef" d="M138.53 173.17a18 18 0 0 0 2.94-3.57 2.23 2.23 0 0 1-.08 2.91 2.34 2.34 0 0 1-2.86.66Z"/><path fill="#d6dede" d="M135 169.77c-.66-2 0-2.88 2.18-2.84a7.5 7.5 0 0 0-2.18 2.84Z"/><path fill="#cedede" d="M138.65 168.78c.19 1.38.09 1.52-1.47 2.17a1.93 1.93 0 0 1 1.47-2.17Z"/><path fill="#a6ecef" d="M168.88 334a7.28 7.28 0 0 1 .32-.93c1.61-3 4.25-3.23 6.45-.59a42.22 42.22 0 0 1-6.77 1.52Z"/><path fill="#fefbf6" d="M167.92 321.31c.19-2.42 1.88-2.57 3.46-2.91 1.21-.27 1.67.5 2.19 1.47a32.71 32.71 0 0 1-5.65 1.44Z"/><path fill="#f8efd7" d="M171.33 325a1 1 0 0 1 .23.06c.64.59 1.07 1.24.44 2.07a.45.45 0 0 1-.7 0c-.73-.78-.51-1.47.03-2.13Z"/><path fill="#fbf0d9" d="M174 322.51c-.18.38-.08 1-.7 1-.35 0-.52-.39-.58-.7-.09-.56.39-.6.75-.68s.53 0 .53.38Z"/><path fill="#f7eccc" d="M169.1 323.32c.35 0 .52.15.45.46s-.21.54-.48.55a.53.53 0 0 1-.54-.45c-.05-.44.28-.51.57-.56Z"/><path fill="#141313" d="M61.89 473.36a1 1 0 0 1 .85.74 9.52 9.52 0 0 0 .92 2.82.88.88 0 0 1-.3 1.22.91.91 0 0 1-1.26-.14 5.15 5.15 0 0 1-1.27-3.66c-.02-.58.44-.95 1.06-.98Z"/><path fill="#020202" d="m267.57 402.88-7-.33a4.26 4.26 0 0 1-.8-.08.9.9 0 0 1-.73-.84 1 1 0 0 1 .61-.94 2.72 2.72 0 0 1 1.56-.22c2.48.1 4.95.19 7.41.35a28.62 28.62 0 0 0 11.66-1.33 16.44 16.44 0 0 0 8.35-6.58c.4-.61.8-1.23 1.26-1.8a1 1 0 1 1 1.53 1.14c-1.65 2.61-3.38 5.15-6 6.93a23.86 23.86 0 0 1-14.26 3.87c-1.2 0-2.4-.12-3.6-.19Z"/><path fill="#040404" d="M197 467.13c-.47 4.7-.34 9.26-1.17 13.75a6.41 6.41 0 0 1-.91 2.62 1.11 1.11 0 0 1-1.54.5c-.58-.32-.55-.89-.33-1.41 1.15-2.71 1.14-5.61 1.42-8.45.26-2.66.37-5.33.54-8v-.4c0-.7.15-1.43 1.07-1.35s.9.83.9 1.52Z"/><path fill="#070505" d="M187.09 388.18a14.86 14.86 0 0 1-4.42-1.54 22.35 22.35 0 0 1-4-2.95 3.53 3.53 0 0 1-.75-.93.88.88 0 0 1 .27-1.24.85.85 0 0 1 1.1.05c.26.21.48.47.73.68a15.52 15.52 0 0 0 6.76 3.74 4.26 4.26 0 0 1 .76.26 1 1 0 0 1 .73 1.24c-.18.67-.71.72-1.18.69Z"/><path fill="#0b0a0a" d="M191 379.26a1.27 1.27 0 0 1 .85.53 28 28 0 0 0 4 4.1 3.44 3.44 0 0 1 .41.44 1 1 0 0 1-1.19 1.47 2.37 2.37 0 0 1-.5-.32 30.76 30.76 0 0 1-4-4.1 1.74 1.74 0 0 1-.45-1.28.87.87 0 0 1 .88-.84Z"/><path fill="#0a0a09" d="M163.63 367a6.45 6.45 0 0 1 2.25-4.49c.47-.39 1-.77 1.59-.21s.34 1.21-.22 1.71a4.75 4.75 0 0 0-1.65 3.51c0 .71-.19 1.37-1.06 1.42-.66-.02-.96-.62-.91-1.94Z"/><path fill="#111010" d="M202.58 384.8a1 1 0 0 1-.38 1 .81.81 0 0 1-1.1-.06 4.2 4.2 0 0 1-1.29-3 .78.78 0 0 1 .54-.77.82.82 0 0 1 1.07.26c.46.85.81 1.77 1.16 2.57Z"/><path fill="#1d1b1b" d="M188.46 484.64a.93.93 0 0 1-1.05.94 4.31 4.31 0 0 1-2.36-1 .85.85 0 0 1-.28-1.07 1 1 0 0 1 .75-.59 5 5 0 0 1 2.8 1.32 2.46 2.46 0 0 1 .14.4Z"/><path fill="#050404" d="M345 465.23a.83.83 0 0 1-.88-.78 1 1 0 0 1 .9-1.13c1.31-.26 2.63-.44 3.95-.64a94.57 94.57 0 0 1 15.59-1c.82 0 1.86-.23 2.08 1 .13.76-.64 1.18-2.16 1.19a112 112 0 0 0-13.21.52Z"/><path fill="#0a0909" d="M256.1 484.93a.88.88 0 0 1 .92.63 6.28 6.28 0 0 0 3 3.62 1 1 0 0 1 .48 1.36c-.3.61-.88.52-1.4.37-1.6-.44-3.81-3.24-3.83-4.82-.02-.69.3-1.09.83-1.16Z"/><path fill="#191414" d="M255 271.87a1.33 1.33 0 0 1-1.5 1.25 1.44 1.44 0 0 1-1.34-1.46 1.55 1.55 0 0 1 1.65-1.38 1.47 1.47 0 0 1 1.19 1.59Z"/><path fill="#131212" d="M247.62 307.13a1.41 1.41 0 0 1 1.48 1.3 1.46 1.46 0 0 1-1.45 1.55 1.48 1.48 0 0 1-1.4-1.41 1.44 1.44 0 0 1 1.37-1.44Z"/><path fill="#151515" d="M246.6 326.51a1.44 1.44 0 0 1-1.24 1.54 1.52 1.52 0 0 1-1.6-1.43 1.48 1.48 0 0 1 1.39-1.42 1.35 1.35 0 0 1 1.45 1.31Z"/><path fill="#221e1e" d="M251.21 290.85a1.24 1.24 0 0 1-1.28 1.17 1.21 1.21 0 0 1-1.32-1.18 1.3 1.3 0 0 1 1.37-1.35 1.36 1.36 0 0 1 1.23 1.36Z"/><path fill="#010303" d="M305.29 255.42c-4.86-1-8.08 1.83-11.16 4.9-.84.85-1.52 1.86-2.29 2.78-.41.49-.89.89-1.53.38a1 1 0 0 1-.09-1.43c2.92-4.1 6.3-7.62 11.43-8.9a6.93 6.93 0 0 1 4.13.25c.59.21 1.11.58.93 1.33s-.77.81-1.42.69ZM296.32 322.73c.06-.16.16-.47.28-.78 1.31-3.43 2.6-6.87 3.93-10.29.28-.71.47-1.67 1.58-1.45.7.13.75.86.23 2.26-1.22 3.32-2.43 6.64-3.66 10a8.27 8.27 0 0 1-.44 1.11 1.05 1.05 0 0 1-1.3.66c-.64-.24-.71-.77-.62-1.51Z"/><path fill="#010505" d="M313.14 265.76a9.1 9.1 0 0 1 0 1.2 1 1 0 0 1-1.09.92.91.91 0 0 1-.88-.91c0-.33 0-.67-.07-1a16.6 16.6 0 0 0-1.93-6.85l-.19-.35c-.25-.55-.26-1.06.34-1.37a1 1 0 0 1 1.37.46 14.58 14.58 0 0 1 1.72 3.79 25.56 25.56 0 0 1 .73 4.11Z"/><path fill="#010607" d="M289.52 327a2.06 2.06 0 0 1 1.06.53l3.92 3.47c.47.42.9.92.43 1.54s-1.19.4-1.73-.06a272.67 272.67 0 0 1-4.1-3.53 1.12 1.12 0 0 1-.38-1.42.85.85 0 0 1 .8-.53Z"/><path fill="#161212" d="M266.53 183.43a.83.83 0 0 1-.49.69.88.88 0 0 1-1.1-.13 5.67 5.67 0 0 0-2.23-1.6.79.79 0 0 1-.41-1 1 1 0 0 1 .7-.64c1.19-.37 3.53 1.34 3.53 2.68Z"/><path fill="#110f0f" d="M285.44 202.78a.83.83 0 0 1-.76-1.15 22.16 22.16 0 0 1 1-2.61.94.94 0 0 1 1.82.44 5.57 5.57 0 0 1-1.14 2.95 1.07 1.07 0 0 1-.92.37Z"/><path fill="#100d0d" d="M263.5 199.34a2.54 2.54 0 0 1-1.6 2.13 1 1 0 0 1-1.25-.33.88.88 0 0 1 .11-1.11 3.18 3.18 0 0 0 .9-1.3c.17-.56.49-1 1.14-.84s.77.82.7 1.45Z"/><path fill="#151212" d="M283.11 200.21c-.2.49-.44 1.18-.77 1.83a.77.77 0 0 1-.89.3.89.89 0 0 1-.75-.83 2.58 2.58 0 0 1 1-2.29.79.79 0 0 1 .94-.05c.36.18.45.47.47 1.04Z"/><path fill="#0c0e0d" d="M85 219.91c-.63-.21-1.33-.41-2-.68a1 1 0 0 1-.66-1.27c.2-.64.69-.71 1.28-.57a7 7 0 0 0 2.13.45.87.87 0 0 1 1 .76c.08.64-.36 1-.9 1.15a6.37 6.37 0 0 1-.85.16Z"/><path fill="#0f0e0e" d="M91 99.79a3.63 3.63 0 0 1 2.4 2.39 1 1 0 0 1-.48 1 .76.76 0 0 1-.92-.08c-.63-.58-1.25-1.18-1.82-1.81a.85.85 0 0 1 0-1.1.94.94 0 0 1 .82-.4ZM79.82 115a1.79 1.79 0 0 1-.44-.22c-.51-.47-.33-1.58.4-2.32.52-.54 1.12-1 1.91-.46a.89.89 0 0 1 .32.48c.2.68-1.4 2.58-2.19 2.52Z"/></g></g></svg>